<?xml version="1.0" encoding="UTF-8"?>
<svg version="1.1" xmlns="http://www.w3.org/2000/svg" width="672" height="371">
<path d="M0 0 C0.88324951 0.18336914 1.76649902 0.36673828 2.67651367 0.55566406 C18.90201303 4.02416388 33.65496771 10.26332615 46.25 21.25 C47.13171875 21.98863281 48.0134375 22.72726563 48.921875 23.48828125 C65.66166329 37.98530785 77.24040747 58.22623181 80.25 80.25 C80.5303425 84.19264696 80.58452287 88.11083108 80.5625 92.0625 C80.55512817 93.63898315 80.55512817 93.63898315 80.54760742 95.24731445 C80.17439147 120.07287381 69.68590669 141.10648189 52.25 158.25 C51.46367187 159.03503906 50.67734375 159.82007813 49.8671875 160.62890625 C42.25205839 167.82097263 33.55675621 171.95130009 23.8125 175.5 C23.14541016 175.74637207 22.47832031 175.99274414 21.79101562 176.24658203 C11.09837769 179.95517433 0.28824766 180.57768088 -10.93041992 180.51074219 C-13.0496109 180.50006494 -15.16794463 180.51067884 -17.28710938 180.5234375 C-29.42704586 180.53795874 -41.88190086 180.09744388 -53.25 175.4375 C-53.91942627 175.17541748 -54.58885254 174.91333496 -55.27856445 174.64331055 C-60.03266661 172.71543613 -63.80643291 170.4924885 -67.75 167.25 C-68.513125 166.81171875 -69.27625 166.3734375 -70.0625 165.921875 C-73.21654816 163.95976364 -75.81482915 161.6850482 -78.5625 159.1875 C-79.53832031 158.30964844 -80.51414063 157.43179688 -81.51953125 156.52734375 C-83.75 154.25 -83.75 154.25 -83.75 152.25 C-84.41 152.25 -85.07 152.25 -85.75 152.25 C-95.40222839 140.97797237 -101.72752576 128.39151099 -105.75 114.25 C-105.9975 113.39921875 -106.245 112.5484375 -106.5 111.671875 C-110.14248106 96.79841067 -107.20607432 81.82413589 -103.75 67.25 C-103.44449219 65.81914062 -103.44449219 65.81914062 -103.1328125 64.359375 C-97.90931306 43.32226766 -81.87698306 25.3154219 -63.875 14.125 C-62.17333843 13.15486937 -60.46483464 12.19665079 -58.75 11.25 C-57.90566406 10.75757812 -57.06132812 10.26515625 -56.19140625 9.7578125 C-39.16224112 0.43404265 -19.06781983 -3.98655867 0 0 Z M-38.75 22.25 C-39.73871094 22.62640625 -40.72742188 23.0028125 -41.74609375 23.390625 C-51.31932031 27.74069915 -60.04568519 33.05930618 -67.75 40.25 C-67.75 40.58 -67.75 40.91 -67.75 41.25 C-62.8 41.25 -57.85 41.25 -52.75 41.25 C-52.48445313 42.33539063 -52.21890625 43.42078125 -51.9453125 44.5390625 C-51.58866918 45.98440647 -51.2318912 47.42971722 -50.875 48.875 C-50.70097656 49.58785156 -50.52695312 50.30070312 -50.34765625 51.03515625 C-49.55760253 54.22463237 -48.72406046 57.3265076 -47.66796875 60.44140625 C-46.77118732 63.18517583 -46.31367777 65.70602926 -45.9375 68.5625 C-45.00767679 74.55056148 -43.3604937 80.16234363 -41.57373047 85.93481445 C-39.94818652 91.28652151 -38.89444156 96.56528585 -38.20703125 102.125 C-38.05621094 102.82625 -37.90539062 103.5275 -37.75 104.25 C-37.09 104.58 -36.43 104.91 -35.75 105.25 C-33.48233013 101.97447686 -31.4047977 98.68716221 -29.5 95.1875 C-25.25596718 87.44377243 -20.60404607 79.91714621 -15.625 72.625 C-11.76117166 66.90865123 -7.93864354 60.81593063 -5.75 54.25 C-5.09 54.25 -4.43 54.25 -3.75 54.25 C-3.316875 53.3425 -2.88375 52.435 -2.4375 51.5 C-1.04165079 48.81169783 0.4476821 46.65309054 2.25 44.25 C2.25 43.59 2.25 42.93 2.25 42.25 C9.51 42.25 16.77 42.25 24.25 42.25 C21.89736013 47.73949302 20.68803055 49.9785075 17.25 54.25 C16.61853428 55.44429387 16.01678413 56.65454242 15.4375 57.875 C13.30735596 62.32817513 10.6638712 66.37504503 7.98046875 70.51171875 C6.42841045 72.9676846 5.0049374 75.44472161 3.625 78 C1.78869259 81.38362218 -0.26718167 84.45137599 -2.54296875 87.55078125 C-4.5329277 90.35217977 -6.18787557 93.18583284 -7.75 96.25 C-7.42 96.91 -7.09 97.57 -6.75 98.25 C-5.74105628 97.32213211 -4.74309093 96.38231567 -3.75 95.4375 C-3.193125 94.91542969 -2.63625 94.39335937 -2.0625 93.85546875 C-0.433535 92.20851033 -0.433535 92.20851033 -0.75 89.25 C0.178125 88.87875 0.178125 88.87875 1.125 88.5 C3.3755343 87.44451899 3.3755343 87.44451899 4.14453125 85.35546875 C5.44966806 82.86971348 6.7656311 81.89791047 9.0625 80.3125 C12.4643714 77.87122898 15.32119023 75.25390745 18.25 72.25 C19.40789892 71.2398608 20.57516884 70.2403953 21.75 69.25 C25.59341686 65.99018223 29.18354207 62.69487849 32.1875 58.625 C34.61757997 55.82672609 36.91592295 54.81497494 40.25 53.25 C41.93582689 51.94097622 43.60554844 50.61063758 45.25 49.25 C44.02801556 47.66111701 42.79705525 46.07913536 41.5625 44.5 C40.87800781 43.61828125 40.19351563 42.7365625 39.48828125 41.828125 C37.25737407 39.2584937 34.94087944 37.31923847 32.25 35.25 C31.76273437 34.74210937 31.27546875 34.23421875 30.7734375 33.7109375 C19.79238238 23.1803872 3.37197602 19.05144231 -11.24438477 19.00976562 C-13.28119138 19.00014784 -15.31694951 18.96915519 -17.35351562 18.9375 C-25.03297594 18.9072212 -31.58432137 19.424196 -38.75 22.25 Z M-76.61328125 51.0703125 C-79.57616353 55.479428 -81.18054766 60.13433238 -82.9375 65.125 C-83.29263672 66.09308594 -83.64777344 67.06117188 -84.01367188 68.05859375 C-89.56743141 83.55010517 -88.69483748 97.75617588 -83.75 113.25 C-83.49605469 114.20519531 -83.24210937 115.16039062 -82.98046875 116.14453125 C-80.36637217 124.93974291 -74.64511378 131.42407878 -68.75 138.25 C-68.15058594 138.96414062 -67.55117188 139.67828125 -66.93359375 140.4140625 C-61.86950196 145.97314071 -55.19612603 149.5180323 -48.75 153.25 C-47.25644611 149.33785239 -48.28690239 146.55157474 -49.4375 142.625 C-51.09775545 136.78543078 -52.53423968 130.93486914 -53.8125 125 C-55.05698682 119.25704871 -56.43335818 113.59590265 -58.0390625 107.94140625 C-58.8707198 104.79298933 -59.53055463 101.62686381 -60.1875 98.4375 C-61.4541012 92.35114791 -63.09605492 86.43861685 -64.84765625 80.4765625 C-65.81557284 77.01552741 -66.52832863 73.56922956 -67.18359375 70.0390625 C-67.95334465 66.2487029 -68.87748266 62.50254733 -69.8125 58.75 C-69.98716797 58.04246582 -70.16183594 57.33493164 -70.34179688 56.60595703 C-71.27494585 52.83248386 -71.27494585 52.83248386 -72.75 49.25 C-74.94570974 49.01706303 -74.94570974 49.01706303 -76.61328125 51.0703125 Z M31.25 82.25 C32.25 84.25 32.25 84.25 32.25 84.25 Z M53.25 70.25 C48.53677214 78.66647833 46.13718961 87.77742784 44.1875 97.1875 C43.16692174 102.02847301 41.81901697 106.68098303 38.25 110.25 C37.8105786 111.87247901 37.37293114 113.49546415 36.9453125 115.12109375 C35.55365464 119.38206866 33.31956635 123.28658519 31.25 127.25 C30.64296716 128.45689599 30.03823148 129.66495517 29.4375 130.875 C28.8496875 132.050625 28.8496875 132.050625 28.25 133.25 C27.26 133.25 26.27 133.25 25.25 133.25 C25.023125 134.1575 24.79625 135.065 24.5625 136 C23.05398129 139.73537966 21.34565383 140.80606277 18.25 143.25 C18.25 144.57 18.25 145.89 18.25 147.25 C17.26 146.755 17.26 146.755 16.25 146.25 C16.73342213 141.89920086 17.34188896 137.65803119 18.25 133.375 C18.97763353 129.93719521 19.39921696 126.63001292 19.625 123.125 C19.98790941 118.81713092 21.24868837 115.9656299 23.34765625 112.23828125 C24.35659126 110.01513009 24.54717512 108.30304569 24.6875 105.875 C25.0072321 101.12000976 26.86020557 97.76611942 29.10546875 93.625 C30.64182361 90.43693257 31.02116635 87.75878258 31.25 84.25 C28.71326712 85.6053326 28.71326712 85.6053326 26.25 87.25 C26.25 87.91 26.25 88.57 26.25 89.25 C25.67765625 89.35441406 25.1053125 89.45882812 24.515625 89.56640625 C21.88014232 90.36159499 20.18968692 91.52901491 18 93.1875 C17.29359375 93.71214844 16.5871875 94.23679687 15.859375 94.77734375 C15.32828125 95.26332031 14.7971875 95.74929687 14.25 96.25 C14.25 96.91 14.25 97.57 14.25 98.25 C13.59 98.25 12.93 98.25 12.25 98.25 C10.80111148 99.93495997 9.41551201 101.67462549 8.0625 103.4375 C4.41387027 108.01295208 1.12844247 111.09336076 -3.75 114.25 C-4.37003906 114.89066406 -4.99007812 115.53132813 -5.62890625 116.19140625 C-8.56984825 119.04569066 -11.93100257 120.73458301 -15.5078125 122.6875 C-17.94400037 124.3851919 -18.58455949 125.58613597 -19.75 128.25 C-20.74 128.745 -20.74 128.745 -21.75 129.25 C-21.75 129.91 -21.75 130.57 -21.75 131.25 C-22.595625 131.25 -23.44125 131.25 -24.3125 131.25 C-32.56327042 133.65022412 -36.99591538 143.47530937 -41.34375 150.39453125 C-43.15060877 153.21954859 -43.15060877 153.21954859 -41.75 156.25 C-33.02210461 160.44610355 -22.37922424 162.00359146 -12.75 161.25 C-11.70972656 161.18167969 -10.66945313 161.11335938 -9.59765625 161.04296875 C11.30711851 159.01272915 29.40095676 150.08580635 43.0703125 134.0859375 C55.26048573 118.22560458 59.98820428 99.84194998 57.90625 79.96875 C57.30933524 76.05178516 57.30933524 76.05178516 56.25 72.25 C55.26 71.59 54.27 70.93 53.25 70.25 Z M-9.75 99.25 C-9.75 102.25 -9.75 102.25 -9.75 102.25 Z M-11.75 103.25 C-13.07 105.56 -14.39 107.87 -15.75 110.25 C-12.58884224 108.88016497 -11.7572908 108.2609362 -9.75 105.25 C-10.41 104.59 -11.07 103.93 -11.75 103.25 Z " fill="#313230" transform="translate(332.75,92.75)"/>
<path d="M0 0 C6.6 0 13.2 0 20 0 C23.7324772 8.70911346 26.5658673 17.41811002 27.9375 26.8125 C28.80017538 32.63361584 30.44626919 38.07633142 32.17236328 43.68457031 C33.99736235 49.71868708 35.19234732 55.74370535 36 62 C39.09198363 58.44994472 41.29352714 54.76579605 43.51953125 50.65625 C47.39365533 43.70531498 51.63837783 36.94595845 56.125 30.375 C58.95452856 26.20028574 61.34298851 21.83661845 63.703125 17.3828125 C65 15 65 15 67 12 C67.66 12 68.32 12 69 12 C69.061875 11.319375 69.12375 10.63875 69.1875 9.9375 C70.31375197 5.86566594 71.69293633 2.73916132 75 0 C78.80099993 -0.87056976 82.43841397 -0.66305459 86.3125 -0.4375 C87.85260742 -0.39012695 87.85260742 -0.39012695 89.42382812 -0.34179688 C91.95215184 -0.25947936 94.4745986 -0.14459011 97 0 C96.38289446 3.39772273 95.85759398 5.60492144 93.6875 8.3125 C91.8724676 10.71703011 90.41165436 13.0263031 89.125 15.75 C87.01809731 20.15999469 84.38717591 24.16619791 81.73046875 28.26171875 C80.17841045 30.7176846 78.7549374 33.19472161 77.375 35.75 C75.88185803 38.50619321 74.30619566 41.04629278 72.4375 43.5625 C69.77206776 47.15577258 67.91318399 50.96105602 66 55 C69.78034623 51.52263974 69.78034623 51.52263974 72 47 C72.99 46.34 73.98 45.68 75 45 C75.391875 44.2575 75.78375 43.515 76.1875 42.75 C78.36175061 39.45113701 80.83063386 37.74515905 84.015625 35.47265625 C86.60290193 33.55257081 88.75432687 31.30476979 91 29 C92.010625 28.175 93.02125 27.35 94.0625 26.5 C96.81245111 24.15961608 98.7982897 21.84091652 101 19 C105.43943315 13.77713747 111.49355961 9.58053983 118.42578125 8.6875 C120.625 8.6875 120.625 8.6875 124 9 C124 11.64 124 14.28 124 17 C124.66 17.33 125.32 17.66 126 18 C125.505 18.495 125.505 18.495 125 19 C124.92760255 21.23074644 125.00350207 23.44492191 125.0625 25.67578125 C124.96606503 29.26195659 123.85270897 32.57493665 122.87890625 36.01171875 C122.66556641 36.77033203 122.45222656 37.52894531 122.23242188 38.31054688 C121.79119417 39.8760691 121.34852202 41.44118505 120.90429688 43.00585938 C119.60547348 47.63559923 118.46255565 52.26367301 117.49389648 56.97412109 C116.48039184 61.13134379 115.06108938 64.93891062 112 68 C111.5605786 69.62247901 111.12293114 71.24546415 110.6953125 72.87109375 C109.57364727 76.30540583 107.89146951 79.43053226 106.2265625 82.62890625 C105.23107629 84.55330157 104.32072897 86.5215671 103.4375 88.5 C101.81408157 91.3233364 100.82482403 91.63314966 98 93 C97.31867549 94.66072849 96.65257873 96.327767 96 98 C94.67151309 99.00642948 93.33849671 100.00692179 92 101 C91.20376178 103.09415804 91.20376178 103.09415804 91 105 C89.515 104.505 89.515 104.505 88 104 C88.48342213 99.64920086 89.09188896 95.40803119 90 91.125 C90.72763353 87.68719521 91.14921696 84.38001292 91.375 80.875 C91.73790941 76.56713092 92.99868837 73.7156299 95.09765625 69.98828125 C96.10659126 67.76513009 96.29717512 66.05304569 96.4375 63.625 C96.75847975 58.85968527 98.60712936 55.46186623 100.85546875 51.30859375 C102.21236915 48.57163766 102.76009489 46.038798 103 43 C102.484375 43.5775 101.96875 44.155 101.4375 44.75 C99.40081804 46.63001412 97.81962248 47.75536076 95.4375 49.0625 C92.67934527 50.6170963 91.10820096 51.78084109 89 54 C88.34 54 87.68 54 87 54 C87 54.66 87 55.32 87 56 C86.34 56 85.68 56 85 56 C84.73703125 56.5775 84.4740625 57.155 84.203125 57.75 C80.8888932 63.94804389 75.87025136 68.29918936 70 72 C69.21625 72.804375 68.4325 73.60875 67.625 74.4375 C64.40370958 77.58209302 59.74024286 82 55 82 C54.34 83.65 53.68 85.3 53 87 C52.34 87 51.68 87 51 87 C51 87.66 51 88.32 51 89 C49.4221875 89.556875 49.4221875 89.556875 47.8125 90.125 C41.49630106 92.8573597 38.61553006 98.52919565 35.1953125 104.17578125 C33.72259069 106.42336649 31.96157322 108.17370769 30 110 C29.34 110.99 28.68 111.98 28 113 C27.34 113 26.68 113 26 113 C26 111.02 26 109.04 26 107 C25.34 107 24.68 107 24 107 C21.55605234 98.18618877 19.37140337 89.36107845 17.43286133 80.42333984 C16.34864191 75.46125928 15.09862128 70.57814215 13.7109375 65.69140625 C12.8792802 62.54298933 12.21944537 59.37686381 11.5625 56.1875 C10.2980858 50.11165701 8.66089224 44.20898352 6.91015625 38.2578125 C5.88872918 34.60171731 5.12002082 30.94897216 4.4296875 27.21875 C4.03052094 25.15759903 3.54023941 23.15297563 3 21.125 C1.21531378 14.17038941 0 7.18107914 0 0 Z M104 40 C105 42 105 42 105 42 Z M63 57 C63 60 63 60 63 60 Z M61 61 C59.68 63.31 58.36 65.62 57 68 C60.16115776 66.63016497 60.9927092 66.0109362 63 63 C62.34 62.34 61.68 61.68 61 61 Z " fill="#161616" transform="translate(260,135)"/>
<path d="M0 0 C3.91632996 3.06315066 7.48142801 6.49287052 11 10 C11.85722656 10.8353125 12.71445312 11.670625 13.59765625 12.53125 C26.67807252 25.97323875 33.21311208 45.07815455 33.3125 63.5625 C33.03271627 83.31523147 27.20267854 101.01823712 14 116 C13.37609375 116.721875 12.7521875 117.44375 12.109375 118.1875 C4.13881758 126.76087268 -6.33103077 133.33001866 -17 138 C-17.66257812 138.29519531 -18.32515625 138.59039062 -19.0078125 138.89453125 C-28.4018996 142.75485449 -38.32788305 143.36574918 -48.375 143.3125 C-49.47481201 143.30758545 -50.57462402 143.3026709 -51.70776367 143.29760742 C-59.54806033 143.18436708 -66.55163561 142.61217286 -74 140 C-75.01835937 139.64808594 -76.03671875 139.29617188 -77.0859375 138.93359375 C-84.1601014 136.23400727 -90.02284345 132.60739151 -96 128 C-96.845625 127.36964844 -97.69125 126.73929688 -98.5625 126.08984375 C-115.81777791 112.85904376 -125.6975816 94.42846866 -128.72265625 72.96484375 C-130.6205466 52.67612862 -125.20148704 32.40301755 -112.796875 16.10546875 C-110.6181484 13.6258341 -108.37199222 11.29468887 -106 9 C-104.91912109 7.94039062 -104.91912109 7.94039062 -103.81640625 6.859375 C-75.15124749 -19.91521179 -32.09838498 -22.19067732 0 0 Z M-73 -4 C-73.98871094 -3.62359375 -74.97742188 -3.2471875 -75.99609375 -2.859375 C-85.56932031 1.49069915 -94.29568519 6.80930618 -102 14 C-102 14.33 -102 14.66 -102 15 C-103.65 15.33 -105.3 15.66 -107 16 C-106.67 18.97 -106.34 21.94 -106 25 C-106.33 24.34 -106.66 23.68 -107 23 C-110.23579914 24.34082873 -111.58452092 25.41035299 -113.05078125 28.58984375 C-113.54505615 29.66081299 -113.54505615 29.66081299 -114.04931641 30.75341797 C-115.55683628 34.31587249 -116.91491509 37.91001605 -118.1875 41.5625 C-118.44724609 42.27857422 -118.70699219 42.99464844 -118.97460938 43.73242188 C-124.12773757 58.36624071 -122.627602 72.50018038 -118 87 C-117.74605469 87.95519531 -117.49210938 88.91039062 -117.23046875 89.89453125 C-114.61637217 98.68974291 -108.89511378 105.17407878 -103 112 C-102.40058594 112.71414062 -101.80117188 113.42828125 -101.18359375 114.1640625 C-95.26268872 120.66370261 -86.86035459 125.23238478 -79 129 C-78.01 127.68 -77.02 126.36 -76 125 C-76.33 126.32 -76.66 127.64 -77 129 C-72.70107031 132.027057 -68.76356446 132.8705081 -63.6875 133.6875 C-62.6056543 133.88182617 -62.6056543 133.88182617 -61.50195312 134.08007812 C-42.34456107 137.32738494 -21.31467443 132.48879967 -5.4375 121.25 C10.0511167 109.64128843 20.25953485 93.5637738 23.62109375 74.47265625 C24.6221956 65.29760941 25.06301138 54.84505961 22 46 C21.01 45.34 20.02 44.68 19 44 C18.34 45.32 17.68 46.64 17 48 C17.165 47.154375 17.33 46.30875 17.5 45.4375 C18.0899624 41.96045403 18.0899624 41.96045403 18 38.25 C18 35 18 35 19 33 C18.34 33 17.68 33 17 33 C17 30.36 17 27.72 17 25 C14.36 25 11.72 25 9 25 C9.66 24.34 10.32 23.68 11 23 C9.77801556 21.41111701 8.54705525 19.82913536 7.3125 18.25 C6.62800781 17.36828125 5.94351563 16.4865625 5.23828125 15.578125 C3.00737407 13.0084937 0.69087944 11.06923847 -2 9 C-2.48726563 8.49210937 -2.97453125 7.98421875 -3.4765625 7.4609375 C-14.45761762 -3.0696128 -30.87802398 -7.19855769 -45.49438477 -7.24023438 C-47.53119138 -7.24985216 -49.56694951 -7.28084481 -51.60351562 -7.3125 C-59.28297594 -7.3427788 -65.83432137 -6.825804 -73 -4 Z " fill="#E3E4DC" transform="translate(367,119)"/>
<path d="M0 0 C0 2.64 0 5.28 0 8 C0.99 8.495 0.99 8.495 2 9 C1.67 9.33 1.34 9.66 1 10 C0.92760255 12.23074644 1.00350207 14.44492191 1.0625 16.67578125 C0.96606503 20.26195659 -0.14729103 23.57493665 -1.12109375 27.01171875 C-1.33443359 27.77033203 -1.54777344 28.52894531 -1.76757812 29.31054688 C-2.20880583 30.8760691 -2.65147798 32.44118505 -3.09570312 34.00585938 C-4.39452652 38.63559923 -5.53744435 43.26367301 -6.50610352 47.97412109 C-7.51960816 52.13134379 -8.93891062 55.93891062 -12 59 C-12.4394214 60.62247901 -12.87706886 62.24546415 -13.3046875 63.87109375 C-14.42635273 67.30540583 -16.10853049 70.43053226 -17.7734375 73.62890625 C-18.76892371 75.55330157 -19.67927103 77.5215671 -20.5625 79.5 C-22.18591843 82.3233364 -23.17517597 82.63314966 -26 84 C-26.68132451 85.66072849 -27.34742127 87.327767 -28 89 C-29.32848691 90.00642948 -30.66150329 91.00692179 -32 92 C-32.79623822 94.09415804 -32.79623822 94.09415804 -33 96 C-33.99 95.67 -34.98 95.34 -36 95 C-35.51657787 90.64920086 -34.90811104 86.40803119 -34 82.125 C-33.27236647 78.68719521 -32.85078304 75.38001292 -32.625 71.875 C-32.26209059 67.56713092 -31.00131163 64.7156299 -28.90234375 60.98828125 C-27.89340874 58.76513009 -27.70282488 57.05304569 -27.5625 54.625 C-27.24152025 49.85968527 -25.39287064 46.46186623 -23.14453125 42.30859375 C-21.78763085 39.57163766 -21.23990511 37.038798 -21 34 C-21.515625 34.5775 -22.03125 35.155 -22.5625 35.75 C-24.59918196 37.63001412 -26.18037752 38.75536076 -28.5625 40.0625 C-31.32065473 41.6170963 -32.89179904 42.78084109 -35 45 C-35.66 45 -36.32 45 -37 45 C-37 45.66 -37 46.32 -37 47 C-37.66 47 -38.32 47 -39 47 C-39.26296875 47.5775 -39.5259375 48.155 -39.796875 48.75 C-43.1111068 54.94804389 -48.12974864 59.29918936 -54 63 C-54.78375 63.804375 -55.5675 64.60875 -56.375 65.4375 C-59.59629042 68.58209302 -64.25975714 73 -69 73 C-69.66 74.65 -70.32 76.3 -71 78 C-71.66 78 -72.32 78 -73 78 C-73 78.66 -73 79.32 -73 80 C-76.465 80.99 -76.465 80.99 -80 82 C-80.84447353 79.63336868 -81.18177739 78.4535493 -80.23071289 76.08056641 C-78.85597412 73.91801402 -77.47762486 71.76145309 -76.0625 69.625 C-75.60037109 68.8825 -75.13824219 68.14 -74.66210938 67.375 C-71.18826994 62.03933346 -67.3106568 58.48757033 -62 55 C-64.0745356 54.8509288 -64.0745356 54.8509288 -66 56 C-65.34 54.02 -64.68 52.04 -64 50 C-63.01 50 -62.02 50 -61 50 C-59.15799921 48.37789496 -59.15799921 48.37789496 -57.4375 46.25 C-56.83808594 45.55390625 -56.23867188 44.8578125 -55.62109375 44.140625 C-53.95472676 42.08799481 -53.95472676 42.08799481 -52.97265625 39.859375 C-52 38 -52 38 -49 36 C-48.608125 35.2575 -48.21625 34.515 -47.8125 33.75 C-45.63824939 30.45113701 -43.16936614 28.74515905 -39.984375 26.47265625 C-37.39709807 24.55257081 -35.24567313 22.30476979 -33 20 C-31.989375 19.175 -30.97875 18.35 -29.9375 17.5 C-27.18754889 15.15961608 -25.2017103 12.84091652 -23 10 C-16.91158527 2.83715914 -9.35118046 -0.86585004 0 0 Z M-20 31 C-19 33 -19 33 -19 33 Z " fill="#212121" transform="translate(384,144)"/>
<path d="M0 0 C0.88324951 0.18336914 1.76649902 0.36673828 2.67651367 0.55566406 C18.90201303 4.02416388 33.65496771 10.26332615 46.25 21.25 C47.13171875 21.98863281 48.0134375 22.72726563 48.921875 23.48828125 C65.66166329 37.98530785 77.24040747 58.22623181 80.25 80.25 C80.5303425 84.19264696 80.58452287 88.11083108 80.5625 92.0625 C80.55512817 93.63898315 80.55512817 93.63898315 80.54760742 95.24731445 C80.17439147 120.07287381 69.68590669 141.10648189 52.25 158.25 C51.46367187 159.03503906 50.67734375 159.82007813 49.8671875 160.62890625 C35.37292015 174.31793653 13.86321537 180.70845341 -5.765625 180.3203125 C-6.42046875 180.29710937 -7.0753125 180.27390625 -7.75 180.25 C-7.75 179.92 -7.75 179.59 -7.75 179.25 C-6.52925781 179.09144531 -5.30851562 178.93289063 -4.05078125 178.76953125 C20.43840157 175.38801258 41.43274328 164.68816661 57.484375 145.6015625 C62.70628288 138.64672059 66.47064435 131.21793694 69.5625 123.125 C69.80500488 122.49263428 70.04750977 121.86026855 70.29736328 121.20874023 C77.10352357 102.45211688 77.07473887 79.59052549 69.25 61.25 C68.80398438 60.04601562 68.35796875 58.84203125 67.8984375 57.6015625 C59.94978187 37.13044382 43.08728878 21.82319122 23.4609375 12.5625 C1.59897432 3.62622308 -23.81008229 1.58319657 -46.06860352 10.60839844 C-65.69654085 19.11857618 -83.24236847 32.73433527 -92.75 52.25 C-93.16894531 53.05566406 -93.58789062 53.86132812 -94.01953125 54.69140625 C-102.90263938 72.69915717 -105.11504273 94.81789487 -99.75 114.25 C-99.50121094 115.22066406 -99.25242188 116.19132812 -98.99609375 117.19140625 C-94.83389158 130.68337561 -87.71024292 142.28975708 -77.75 152.25 C-76.86828125 153.25546875 -76.86828125 153.25546875 -75.96875 154.28125 C-66.65615272 164.57412068 -53.93246855 170.72675416 -40.98046875 175.09375 C-37.75 176.25 -37.75 176.25 -34.75 178.25 C-45.07198241 179.58987272 -56.53587937 175.60577098 -64.9375 169.5625 C-66.3296875 168.4178125 -66.3296875 168.4178125 -67.75 167.25 C-68.513125 166.81171875 -69.27625 166.3734375 -70.0625 165.921875 C-73.21654816 163.95976364 -75.81482915 161.6850482 -78.5625 159.1875 C-79.53832031 158.30964844 -80.51414063 157.43179688 -81.51953125 156.52734375 C-83.75 154.25 -83.75 154.25 -83.75 152.25 C-84.41 152.25 -85.07 152.25 -85.75 152.25 C-95.40222839 140.97797237 -101.72752576 128.39151099 -105.75 114.25 C-105.9975 113.39921875 -106.245 112.5484375 -106.5 111.671875 C-110.14248106 96.79841067 -107.20607432 81.82413589 -103.75 67.25 C-103.44449219 65.81914062 -103.44449219 65.81914062 -103.1328125 64.359375 C-97.90931306 43.32226766 -81.87698306 25.3154219 -63.875 14.125 C-62.17333843 13.15486937 -60.46483464 12.19665079 -58.75 11.25 C-57.90566406 10.75757812 -57.06132812 10.26515625 -56.19140625 9.7578125 C-39.16224112 0.43404265 -19.06781983 -3.98655867 0 0 Z " fill="#F3F3F3" transform="translate(332.75,92.75)"/>
<path d="M0 0 C6.95997872 6.18617586 13.28858809 12.53433227 17.96484375 20.65625 C18.48175781 21.49542969 18.99867188 22.33460938 19.53125 23.19921875 C29.56385059 41.02657168 31.9398386 63.91093366 26.96484375 83.65625 C20.43886175 106.85426904 7.06390233 124.41546305 -13.78515625 136.53125 C-32.42514343 146.91077253 -56.76182747 150.3038814 -77.53515625 145.15625 C-90.33022273 141.38283476 -101.64543271 134.96102059 -112.03515625 126.65625 C-112.66550781 126.18960938 -113.29585938 125.72296875 -113.9453125 125.2421875 C-127.72041808 114.51078406 -137.5370759 94.41257087 -140.61328125 77.47265625 C-142.15693844 63.50827593 -141.8722104 49.93561606 -137.03515625 36.65625 C-136.59945312 35.45484375 -136.16375 34.2534375 -135.71484375 33.015625 C-132.54544006 25.01417961 -128.50331924 18.28723851 -123.03515625 11.65625 C-122.53113281 11.04056152 -122.02710938 10.42487305 -121.5078125 9.79052734 C-117.39265968 4.90495245 -113.00533095 0.87281283 -107.91015625 -2.96875 C-107.16588379 -3.53070068 -106.42161133 -4.09265137 -105.65478516 -4.67163086 C-74.41482445 -27.67767358 -29.35389361 -25.00490672 0 0 Z M-112.03515625 5.65625 C-112.85628906 6.34074219 -113.67742187 7.02523437 -114.5234375 7.73046875 C-128.09121773 20.03286015 -136.16045604 40.53643202 -137.19921875 58.4921875 C-137.82141155 81.40019526 -129.59168028 102.2610669 -113.90625 118.94921875 C-94.59384462 137.15805811 -72.91693046 142.42009881 -46.95068359 141.79248047 C-41.36758209 141.53160535 -36.33459176 140.46902242 -31.03515625 138.65625 C-29.96652344 138.3159375 -28.89789063 137.975625 -27.796875 137.625 C-10.05053206 131.45235898 7.40224552 117.36840469 16.09130859 100.46484375 C20.50150688 91.25369412 24.38752444 81.94759428 24.96484375 71.65625 C25.02623535 70.62081055 25.02623535 70.62081055 25.08886719 69.56445312 C26.15312262 48.85984737 21.0534925 28.50087526 6.96484375 12.65625 C4.69440225 10.13531969 4.69440225 10.13531969 1.96484375 7.65625 C0.98837891 6.67205078 0.98837891 6.67205078 -0.0078125 5.66796875 C-15.91205575 -9.70524802 -36.57964142 -16.65625 -58.47265625 -16.65625 C-79.18184694 -16.24206619 -96.55923999 -7.60583748 -112.03515625 5.65625 Z " fill="#282925" transform="translate(375.03515625,120.34375)"/>
<path d="M0 0 C3.91632996 3.06315066 7.48142801 6.49287052 11 10 C11.85722656 10.8353125 12.71445312 11.670625 13.59765625 12.53125 C26.67807252 25.97323875 33.21311208 45.07815455 33.3125 63.5625 C33.0666788 80.91747683 28.68066108 97.03871702 18 111 C17.2575 110.46375 16.515 109.9275 15.75 109.375 C14.8425 108.92125 13.935 108.4675 13 108 C10.83913717 108.85096218 10.83913717 108.85096218 9 110 C9.56267578 109.32517578 9.56267578 109.32517578 10.13671875 108.63671875 C14.514483 103.13418887 17.40236751 97.51580056 20 91 C20.39574219 90.11570312 20.79148437 89.23140625 21.19921875 88.3203125 C26.57429924 74.40168302 25.93475594 55.26620338 22 41 C21.34 40.01 20.68 39.02 20 38 C20 37.01 20 36.02 20 35 C19.34 34.67 18.68 34.34 18 34 C16.03177114 32.03177114 16.33751619 28.65191291 16 26 C14.906875 26 13.81375 26 12.6875 26 C10.45833333 26 8.22916667 26 6 26 C7.32 25.01 8.64 24.02 10 23 C8.77801556 21.41111701 7.54705525 19.82913536 6.3125 18.25 C5.62800781 17.36828125 4.94351563 16.4865625 4.23828125 15.578125 C2.05863862 12.90885512 2.05863862 12.90885512 -0.76953125 10.796875 C-1.50558594 10.20390625 -2.24164063 9.6109375 -3 9 C-3 8.34 -3 7.68 -3 7 C-3.66515625 6.75121094 -4.3303125 6.50242187 -5.015625 6.24609375 C-9.39275997 4.41846802 -13.5629237 2.20478113 -17.765625 0.00976562 C-28.01567472 -5.22367322 -36.36152793 -6.47749262 -47.9375 -6.375 C-49.89719727 -6.39240234 -49.89719727 -6.39240234 -51.89648438 -6.41015625 C-61.02817392 -6.38258195 -68.28017402 -5.03440775 -76.625 -1.4375 C-80.40714409 0.17341322 -84.00017841 1.0667083 -88 2 C-88.99 2.33 -89.98 2.66 -91 3 C-91 3.66 -91 4.32 -91 5 C-92.32 5.33 -93.64 5.66 -95 6 C-95.33 5.01 -95.66 4.02 -96 3 C-96.66 2.67 -97.32 2.34 -98 2 C-69.01459573 -20.11527459 -30.05457849 -20.77772616 0 0 Z " fill="#E6E6E0" transform="translate(367,119)"/>
<path d="M0 0 C1.001521 -0.00563965 2.00304199 -0.0112793 3.03491211 -0.01708984 C23.91347717 0.1852318 43.24413062 7.48173074 58.875 21.3125 C59.93584164 22.14794342 60.99812398 22.98156415 62.0625 23.8125 C76.23837739 36.4132799 85.85663809 55.35958941 87.875 74.3125 C88.36250234 84.97154749 88.70582389 95.95764418 85.875 106.3125 C85.56820312 107.52808594 85.26140625 108.74367188 84.9453125 109.99609375 C78.9702756 132.18098439 64.4409384 148.774166 44.73632812 160.28564453 C23.41454695 172.0484215 -0.69375709 174.51269074 -24.125 168.3125 C-45.99239325 161.56696513 -64.75301114 146.96504441 -75.98046875 127.015625 C-83.05559152 113.43863034 -86.30211096 100.74072457 -86.3125 85.5 C-86.32474609 84.56607422 -86.33699219 83.63214844 -86.34960938 82.66992188 C-86.39537518 60.68707886 -76.5038926 41.19697957 -61.6875 25.4375 C-51.1313905 15.1692844 -39.09646144 7.83629919 -25.125 3.3125 C-24.14015625 2.97476563 -23.1553125 2.63703125 -22.140625 2.2890625 C-14.82007019 0.17810887 -7.56437022 0.04043573 0 0 Z M-61.125 28.3125 C-61.64320313 28.77527344 -62.16140625 29.23804687 -62.6953125 29.71484375 C-74.74448488 40.76442111 -83.13309827 59.53464831 -84.31201172 75.91015625 C-84.3922385 78.67274811 -84.40322665 81.42391993 -84.375 84.1875 C-84.36678223 85.16275635 -84.35856445 86.1380127 -84.35009766 87.14282227 C-84.02376047 108.09682756 -75.51403811 127.9372185 -61.125 143.3125 C-41.64426077 161.34033783 -20.07014928 169.35180404 6.21484375 168.6328125 C29.13751276 167.58037617 50.01433251 156.63796651 65.875 140.3125 C81.10736609 122.82440115 87.17705556 100.78160853 86.08837891 77.87011719 C84.11451335 54.21083159 73.22478346 35.81275356 55.5625 20.5625 C19.97400096 -7.30253755 -29.75692203 -4.75114975 -61.125 28.3125 Z " fill="#DEDEDB" transform="translate(318.125,98.6875)"/>
<path d="M0 0 C4.53215202 -0.36561899 4.53215202 -0.36561899 6.51953125 1.1875 C19.254218 19.03914547 24.29037224 37.23639889 23 59 C22.94070313 60.05703125 22.88140625 61.1140625 22.8203125 62.203125 C21.41434566 74.47961595 15.45389972 87.25659531 8 97 C7.2575 96.46375 6.515 95.9275 5.75 95.375 C4.8425 94.92125 3.935 94.4675 3 94 C0.83913717 94.85096218 0.83913717 94.85096218 -1 96 C-0.62488281 95.55011719 -0.24976563 95.10023438 0.13671875 94.63671875 C4.514483 89.13418887 7.40236751 83.51580056 10 77 C10.39574219 76.11570312 10.79148437 75.23140625 11.19921875 74.3203125 C16.57429924 60.40168302 15.93475594 41.26620338 12 27 C11.34 26.01 10.68 25.02 10 24 C10 23.01 10 22.02 10 21 C9.34 20.67 8.68 20.34 8 20 C6.03177114 18.03177114 6.33751619 14.65191291 6 12 C4.906875 12 3.81375 12 2.6875 12 C0.45833333 12 -1.77083333 12 -4 12 C-2 10 -2 10 0.625 9.875 C1.40875 9.91625 2.1925 9.9575 3 10 C1.92598892 7.08482708 1.22189824 5.22189824 -1 3 C-0.67 2.01 -0.34 1.02 0 0 Z " fill="#E3E3DA" transform="translate(377,133)"/>
<path d="M0 0 C12.83490826 10.99849837 19.85206676 25.17789395 25 41 C25.21333984 41.6487207 25.42667969 42.29744141 25.64648438 42.96582031 C27.23216801 48.40128227 27.05560452 53.39352913 26.625 59 C26.56828125 59.87011719 26.5115625 60.74023438 26.453125 61.63671875 C26.3132223 63.75857631 26.15818789 65.87942723 26 68 C25.67 68 25.34 68 25 68 C24.96132813 66.5459375 24.96132813 66.5459375 24.921875 65.0625 C24.10465993 43.43626511 18.07186701 21.2878735 2 6 C2 5.34 2 4.68 2 4 C1.41089844 3.73445313 0.82179688 3.46890625 0.21484375 3.1953125 C-2.05812354 1.96863174 -3.57793351 0.6558766 -5.4375 -1.125 C-14.40357854 -9.09484759 -24.69349971 -14.21578358 -36 -18 C-37.03447266 -18.35191406 -37.03447266 -18.35191406 -38.08984375 -18.7109375 C-58.51143284 -25.10136674 -82.32105226 -21.6679691 -101.375 -12.8125 C-122.9225973 -1.20994761 -138.43895206 16.90075799 -145.8125 40.375 C-148.13704371 48.34888935 -148.43035268 56.70085456 -149.0625 64.9375 C-149.15337891 66.09830078 -149.24425781 67.25910156 -149.33789062 68.45507812 C-149.56058613 71.30323641 -149.78123047 74.15153793 -150 77 C-150.33 77 -150.66 77 -151 77 C-151.75290588 51.70236238 -149.20542191 30.41600096 -133 10 C-132.43023437 9.26652344 -131.86046875 8.53304687 -131.2734375 7.77734375 C-119.01397937 -7.01225787 -101.59891949 -17.53249721 -83 -22 C-81.60974609 -22.33644531 -81.60974609 -22.33644531 -80.19140625 -22.6796875 C-50.10867949 -28.77133536 -23.01773855 -19.15524974 0 0 Z " fill="#40403F" transform="translate(381,121)"/>
<path d="M0 0 C0.66 0 1.32 0 2 0 C3.46091282 2.43485469 4.01509953 4.1449555 4.3125 7 C5.57527247 17.46297193 11.7973113 27.91441841 18.828125 35.51953125 C20 37 20 37 20 39 C21.32 39.66 22.64 40.32 24 41 C24 41.66 24 42.32 24 43 C24.66 43 25.32 43 26 43 C26 43.66 26 44.32 26 45 C26.804375 45.268125 27.60875 45.53625 28.4375 45.8125 C29.283125 46.204375 30.12875 46.59625 31 47 C31.33 47.99 31.66 48.98 32 50 C33.1446875 50.0928125 33.1446875 50.0928125 34.3125 50.1875 C37 51 37 51 38.75 53.4375 C39.1625 54.283125 39.575 55.12875 40 56 C40.33 56.66 40.66 57.32 41 58 C41.99 58.33 42.98 58.66 44 59 C44 59.99 44 60.98 44 62 C37.82632312 61.13677792 33.87498012 57.66865316 29 54 C28.14535156 53.36449219 27.29070312 52.72898438 26.41015625 52.07421875 C10.20448513 39.61408025 -0.06013653 22.30053089 -3 2 C-2.34 2 -1.68 2 -1 2 C-0.67 1.34 -0.34 0.68 0 0 Z " fill="#E3E3DC" transform="translate(242,193)"/>
<path d="M0 0 C0.66 0 1.32 0 2 0 C0.99586549 2.55179136 -0.03529579 5.07947557 -1.1484375 7.5859375 C-10.33603861 28.47748908 -12.66894585 50.84125126 -4.3125 72.4375 C4.87140808 94.92458992 20.50903878 111.18998265 42.9375 120.875 C54.2925273 125.04623452 66.02049 126.78930484 78 128 C78 128.33 78 128.66 78 129 C51.72970019 130.2225062 32.39082145 122.30739525 12.65234375 104.93359375 C-1.22065449 91.70212144 -11.25743323 71.81980638 -12.10839844 52.54467773 C-12.17012455 49.75814857 -12.18560008 46.97468735 -12.1875 44.1875 C-12.19974609 43.25357422 -12.21199219 42.31964844 -12.22460938 41.35742188 C-12.25532019 26.60599332 -7.78487966 12.52206176 0 0 Z " fill="#DADBD9" transform="translate(244,140)"/>
<path d="M0 0 C0.99 0 1.98 0 3 0 C3.12375 0.804375 3.2475 1.60875 3.375 2.4375 C3.684375 3.7059375 3.684375 3.7059375 4 5 C4.99 5.495 4.99 5.495 6 6 C10.97872557 22.59378326 9.91999822 43.2131517 3 59 C2.47599609 60.25876953 2.47599609 60.25876953 1.94140625 61.54296875 C-3.13253853 72.04399 -13.91430474 81.95903068 -23 89 C-23.66 89 -24.32 89 -25 89 C-25 89.66 -25 90.32 -25 91 C-26.56119422 91.79423861 -28.12401964 92.58527123 -29.6875 93.375 C-30.55761719 93.81585938 -31.42773438 94.25671875 -32.32421875 94.7109375 C-43.31088183 100.00378249 -54.46555252 101.49978227 -66.5625 101.375 C-67.69107422 101.38660156 -68.81964844 101.39820313 -69.98242188 101.41015625 C-79.01019808 101.37900809 -87.94837652 100.35996535 -96 96 C-95.5206753 91.68607774 -94.2542015 89.83430453 -91 87 C-91.66 89.31 -92.32 91.62 -93 94 C-83.96077579 97.89927319 -73.85401341 99.77118366 -64 99 C-62.95972656 98.93167969 -61.91945313 98.86335938 -60.84765625 98.79296875 C-40.59688567 96.82624503 -22.15068551 88.35264987 -8.95703125 72.61328125 C2.9436464 56.7219572 7.88174578 38.47012546 5.62109375 18.68359375 C4.99213676 14.79864309 4.99213676 14.79864309 4 11 C3.01 10.505 3.01 10.505 2 10 C1.34 11.65 0.68 13.3 0 15 C-1.13825019 11.58524944 -0.70549041 10.4490642 0 7 C0.03824623 4.66698014 0.04574284 2.33288492 0 0 Z " fill="#FBFBF7" transform="translate(384,154)"/>
<path d="M0 0 C0.66644531 0.06058594 1.33289063 0.12117188 2.01953125 0.18359375 C2.94121094 0.26738281 3.86289062 0.35117188 4.8125 0.4375 C6.33810547 0.59025391 6.33810547 0.59025391 7.89453125 0.74609375 C10.89797784 1.03976803 10.89797784 1.03976803 13.51171875 0.97265625 C27.16966859 1.12274361 41.26706992 10.00926909 51 19 C51.89847656 19.75925781 52.79695313 20.51851562 53.72265625 21.30078125 C64.1967652 30.33415995 71.29831401 39.99011387 76 53 C76.6615329 54.66871101 77.32657017 56.33605454 78 58 C76.68 58.33 75.36 58.66 74 59 C73.67128906 58.12859375 73.34257812 57.2571875 73.00390625 56.359375 C64.63735292 35.4089813 48.51169732 19.8914108 28.2109375 10.3125 C19.37656652 6.70137025 10.51413279 3.98312706 1 3 C0.67 2.01 0.34 1.02 0 0 Z " fill="#F0F0EF" transform="translate(328,95)"/>
<path d="M0 0 C1.32 0.33 2.64 0.66 4 1 C2.12278168 7.23094185 -0.26093044 12.85512588 -3.375 18.5625 C-3.93574219 19.61727539 -3.93574219 19.61727539 -4.5078125 20.69335938 C-8.35362935 27.85158355 -12.11714638 34.55098555 -18 40.25 C-18.825 41.05953125 -19.65 41.8690625 -20.5 42.703125 C-36.20494057 57.13203915 -57.92812123 63.74664137 -79 63 C-79 62.67 -79 62.34 -79 62 C-77.77925781 61.84144531 -76.55851562 61.68289063 -75.30078125 61.51953125 C-50.8045651 58.1370414 -29.83596472 47.43615075 -13.76953125 28.359375 C-7.19998074 19.59997431 -3.31528844 10.32781098 0 0 Z " fill="#F3F3F2" transform="translate(404,210)"/>
<path d="M0 0 C2.57245972 2.96822275 4.48998245 5.92543996 6.3125 9.375 C16.82281836 27.02390552 34.72463425 38.4337303 53.76953125 44.84375 C57 46 57 46 60 48 C49.67801759 49.33987272 38.21412063 45.35577098 29.8125 39.3125 C28.884375 38.549375 27.95625 37.78625 27 37 C26.236875 36.56171875 25.47375 36.1234375 24.6875 35.671875 C21.53345184 33.70976364 18.93517085 31.4350482 16.1875 28.9375 C15.21167969 28.05964844 14.23585937 27.18179688 13.23046875 26.27734375 C11 24 11 24 11 22 C10.34 22 9.68 22 9 22 C8.54109375 21.13117188 8.0821875 20.26234375 7.609375 19.3671875 C6.68898437 17.63855469 6.68898437 17.63855469 5.75 15.875 C5.14671875 14.73804688 4.5434375 13.60109375 3.921875 12.4296875 C2.08430863 9.1504532 0.12589064 6.09477 -2 3 C-1 1 -1 1 0 0 Z " fill="#EDEDED" transform="translate(238,223)"/>
<path d="M0 0 C0.33 0 0.66 0 1 0 C1.17015625 0.94359375 1.3403125 1.8871875 1.515625 2.859375 C6.27136984 28.05470403 16.69388229 49.13380137 38.16796875 64.2265625 C47.87347367 70.41860506 58.06539166 74.53737402 69 78 C69 78.66 69 79.32 69 80 C50.34907367 79.66694774 33.78700783 66.45267584 21.25610352 53.79980469 C12.99039313 45.11457563 7.51102929 35.07252644 3 24 C2.6803125 23.2884375 2.360625 22.576875 2.03125 21.84375 C-0.81165332 14.78913807 -0.26588794 7.47440537 0 0 Z " fill="#2E2E2D" transform="translate(231,190)"/>
<path d="M0 0 C1.001521 -0.00563965 2.00304199 -0.0112793 3.03491211 -0.01708984 C15.93984401 0.10796411 28.14776423 2.95876193 39.875 8.3125 C39.215 8.9725 38.555 9.6325 37.875 10.3125 C37.05 9.98636719 36.225 9.66023438 35.375 9.32421875 C12.80782015 0.78596655 -10.61819225 -0.50097936 -33.203125 8.9375 C-48.16810582 15.97984392 -61.92062428 27.50593642 -71.125 41.3125 C-72.115 40.9825 -73.105 40.6525 -74.125 40.3125 C-61.00531221 23.08832888 -45.86872269 10.02907981 -25.125 3.3125 C-24.14015625 2.97476563 -23.1553125 2.63703125 -22.140625 2.2890625 C-14.82007019 0.17810887 -7.56437022 0.04043573 0 0 Z " fill="#D2D3CF" transform="translate(318.125,98.6875)"/>
<path d="M0 0 C0.495 1.98 0.495 1.98 1 4 C-2.34165086 6.12759785 -5.49350296 7.63381823 -9.25 8.875 C-13.89817966 10.4977745 -18.00686958 12.5158783 -22.22265625 15.046875 C-24 16 -24 16 -26 16 C-26 16.66 -26 17.32 -26 18 C-27.32 18.33 -28.64 18.66 -30 19 C-30.33 18.01 -30.66 17.02 -31 16 C-31.66 15.67 -32.32 15.34 -33 15 C-23.8720414 8.03555303 -11.93490822 0 0 0 Z " fill="#E0E1DA" transform="translate(302,106)"/>
<path d="M0 0 C1.14250679 3.42752036 0.88048939 3.98217619 -0.3984375 7.203125 C-0.87023437 8.42708984 -0.87023437 8.42708984 -1.3515625 9.67578125 C-1.68929687 10.52527344 -2.02703125 11.37476563 -2.375 12.25 C-8.70766064 28.25481029 -8.19320345 42.72796253 -3 59 C-2.74605469 59.95519531 -2.49210938 60.91039062 -2.23046875 61.89453125 C1.79795313 75.44828566 14.09489806 88.58117578 26.125 95.5625 C27.07375 96.036875 28.0225 96.51125 29 97 C26 98 26 98 23.5625 97.3125 C20.79033831 95.89261231 19.11509078 94.26095911 17 92 C16.34 91.67 15.68 91.34 15 91 C15 90.34 15 89.68 15 89 C14.34 89 13.68 89 13 89 C5.36106032 81.59731618 -0.33747006 73.02083964 -4.5 63.3125 C-4.9228125 62.33925781 -5.345625 61.36601562 -5.78125 60.36328125 C-12.30794154 42.35212286 -10.44757284 22.50188907 -2.77734375 5.25 C-1.91429668 3.46822541 -0.97061461 1.72553708 0 0 Z " fill="#FAFBF7" transform="translate(253,147)"/>
<path d="M0 0 C2.3125 -0.21484375 2.3125 -0.21484375 5 0 C6.625 1.43359375 6.625 1.43359375 8 3.4375 C8.49757813 4.16066406 8.99515625 4.88382813 9.5078125 5.62890625 C16 15.94502618 16 15.94502618 16 19 C15.34 19 14.68 19 14 19 C13.67 20.32 13.34 21.64 13 23 C10.625 22.5625 10.625 22.5625 8 21 C6.92998438 18.05880129 6.42656082 15.09415757 6 12 C4.906875 12 3.81375 12 2.6875 12 C0.45833333 12 -1.77083333 12 -4 12 C-2 10 -2 10 0.625 9.875 C1.40875 9.91625 2.1925 9.9575 3 10 C1.92598892 7.08482708 1.22189824 5.22189824 -1 3 C-0.67 2.01 -0.34 1.02 0 0 Z " fill="#DADBD5" transform="translate(377,133)"/>
<path d="M0 0 C1.33901367 0.26103516 1.33901367 0.26103516 2.70507812 0.52734375 C9.30108563 1.86739042 9.30108563 1.86739042 12.6875 4.125 C6.95483196 4.24962322 1.38255736 3.7666966 -4.3125 3.125 C-4.3125 3.455 -4.3125 3.785 -4.3125 4.125 C-7.9166498 4.15400455 -11.52076962 4.17180018 -15.125 4.1875 C-16.66124023 4.20006836 -16.66124023 4.20006836 -18.22851562 4.21289062 C-19.70288086 4.21772461 -19.70288086 4.21772461 -21.20703125 4.22265625 C-22.11300049 4.22789307 -23.01896973 4.23312988 -23.95239258 4.23852539 C-26.3125 4.125 -26.3125 4.125 -29.3125 3.125 C-30.97871616 3.08625079 -32.64644172 3.0799714 -34.3125 3.125 C-33.3125 1.125 -33.3125 1.125 -30.25 0.0625 C-19.90783842 -2.61801943 -10.34847453 -2.15370466 0 0 Z " fill="#FCFCFC" transform="translate(333.3125,92.875)"/>
<path d="M0 0 C0.66 0.33 1.32 0.66 2 1 C-0.97 5.455 -0.97 5.455 -4 10 C-2.68 9.34 -1.36 8.68 0 8 C0.99 8.33 1.98 8.66 3 9 C5.04563599 7.73779907 7.04402816 6.39712274 9 5 C10.3191582 4.30570621 11.64649406 3.62469505 13 3 C11.52794396 6.83399908 9.58125389 8.17752164 6.0625 10.1875 C5.18722656 10.69667969 4.31195313 11.20585937 3.41015625 11.73046875 C1 13 1 13 -2 14 C-3.21869929 16.50447516 -3.21869929 16.50447516 -4 19 C-4.66 19 -5.32 19 -6 19 C-6 19.66 -6 20.32 -6 21 C-8.31 21.66 -10.62 22.32 -13 23 C-13.88782639 20.56697501 -14.18876866 19.44107567 -13.15136719 17.01708984 C-12.70438477 16.33855957 -12.25740234 15.6600293 -11.796875 14.9609375 C-11.31089844 14.21585938 -10.82492187 13.47078125 -10.32421875 12.703125 C-9.80472656 11.93484375 -9.28523438 11.1665625 -8.75 10.375 C-7.99396484 9.21097656 -7.99396484 9.21097656 -7.22265625 8.0234375 C-3.4264606 2.28430707 -3.4264606 2.28430707 0 0 Z " fill="#161616" transform="translate(317,203)"/>
<path d="M0 0 C3.64816598 1.3102568 6.4216294 2.90959495 9.5 5.25 C24.69127594 16.02729163 41.87411923 19.16812907 60 21 C60 21.33 60 21.66 60 22 C37.78931313 23.03358936 20.45063155 18.51253705 2.609375 4.578125 C1 3 1 3 0 0 Z " fill="#E6E6E4" transform="translate(262,247)"/>
<path d="M0 0 C-0.80824219 0.51949219 -1.61648438 1.03898437 -2.44921875 1.57421875 C-3.51785156 2.27160156 -4.58648437 2.96898438 -5.6875 3.6875 C-6.74324219 4.37199219 -7.79898437 5.05648437 -8.88671875 5.76171875 C-11.98266649 7.98753814 -14.39439568 10.23970303 -17 13 C-12.71 13.33 -8.42 13.66 -4 14 C-4 14.33 -4 14.66 -4 15 C-11.26 15 -18.52 15 -26 15 C-23.73385013 8.20155039 -23.73385013 8.20155039 -20.0625 5.125 C-19.37285156 4.52945313 -18.68320312 3.93390625 -17.97265625 3.3203125 C-16 2 -16 2 -13 2 C-12.67 2.66 -12.34 3.32 -12 4 C-10.68 4 -9.36 4 -8 4 C-8 3.34 -8 2.68 -8 2 C-3.61016949 -1.20338983 -3.61016949 -1.20338983 0 0 Z " fill="#E9EAE4" transform="translate(284,120)"/>
<path d="M0 0 C0.33 0 0.66 0 1 0 C1.17015625 0.94359375 1.3403125 1.8871875 1.515625 2.859375 C4.59381445 19.16722976 9.59878568 34.76209086 20 48 C18.68 48 17.36 48 16 48 C14.03515625 45.54296875 14.03515625 45.54296875 12.0625 42.1875 C11.71550049 41.5987207 11.36850098 41.00994141 11.01098633 40.40332031 C7.94308478 35.10493093 5.31030962 29.67075998 3 24 C2.6803125 23.2884375 2.360625 22.576875 2.03125 21.84375 C-0.81165332 14.78913807 -0.26588794 7.47440537 0 0 Z " fill="#343534" transform="translate(231,190)"/>
<path d="M0 0 C0.54060059 0.0714624 1.08120117 0.1429248 1.63818359 0.21655273 C9.62996088 1.15315304 17.59305343 1.1131175 25.625 1.0625 C27.02473797 1.05747197 28.4244777 1.05291138 29.82421875 1.04882812 C33.21619169 1.03713167 36.60807233 1.02074086 40 1 C34.27187841 6.72812159 21.12161602 5.18122603 13.5 5.1875 C12.54448242 5.18830566 11.58896484 5.18911133 10.60449219 5.18994141 C6.2458871 5.15525141 2.26921947 4.95108723 -2 4 C-2 3.34 -2 2.68 -2 2 C-1.34 2 -0.68 2 0 2 C0 1.34 0 0.68 0 0 Z " fill="#313130" transform="translate(300,268)"/>
<path d="M0 0 C6.35219042 0.54881057 12.67873638 1.16511613 19 2 C19 2.66 19 3.32 19 4 C20.19625 4.165 21.3925 4.33 22.625 4.5 C29.77779629 6.03355953 35.83356106 10.22820947 42 14 C40.46484375 14.69921875 40.46484375 14.69921875 38 15 C35.42340631 14.02974686 33.03410285 13.0007706 30.5625 11.8125 C21.04568774 7.44736853 11.51934408 3.82504659 1 3 C0.67 2.01 0.34 1.02 0 0 Z " fill="#DBDBDA" transform="translate(328,95)"/>
<path d="M0 0 C1.32 0.33 2.64 0.66 4 1 C2.10359642 7.3446885 -0.3715934 13.01889633 -3.5625 18.8125 C-4.35572244 20.27720639 -5.14869952 21.74204569 -5.94140625 23.20703125 C-6.28888916 23.8410083 -6.63637207 24.47498535 -6.99438477 25.12817383 C-7.70433118 26.4496497 -8.36752015 27.79675917 -8.99584961 29.15893555 C-10.26721717 31.48993064 -11.57918494 32.03167397 -14 33 C-14 28.52243202 -13.4522809 27.85700433 -10.9375 24.375 C-5.91321474 16.8385721 -3.06785659 8.476236 0 0 Z " fill="#E1E2E1" transform="translate(404,210)"/>
<path d="M0 0 C0.66 0.33 1.32 0.66 2 1 C1.91015625 2.80859375 1.91015625 2.80859375 1 5 C-1.22456392 6.26192322 -3.18985398 7.17735245 -5.5625 8.0625 C-6.22926758 8.31854004 -6.89603516 8.57458008 -7.58300781 8.83837891 C-18.35030275 12.78504721 -29.52279865 14.65653482 -41 14 C-41 13.67 -41 13.34 -41 13 C-39.77925781 12.84144531 -38.55851562 12.68289063 -37.30078125 12.51953125 C-24.23475715 10.71227308 -13.0656346 7.85885335 -1.70703125 0.8203125 C-1.14371094 0.54960937 -0.58039063 0.27890625 0 0 Z " fill="#E4E5E4" transform="translate(366,259)"/>
<path d="M0 0 C2.6173546 3.02002454 4.60023723 6.07210745 6.5 9.5625 C10.49798211 16.42950037 16.26309825 21.5972867 22 27 C21.34 27.99 20.68 28.98 20 30 C17 28 17 28 16 25 C14.00334402 23.32932867 12.00348966 21.66247014 10 20 C10 19.34 10 18.68 10 18 C9.38125 17.91105469 8.7625 17.82210937 8.125 17.73046875 C6 17 6 17 4.875 15.36328125 C4.58625 14.68652344 4.2975 14.00976562 4 13.3125 C2.30341171 9.57596627 0.35148338 6.35926198 -2 3 C-1 1 -1 1 0 0 Z " fill="#DEDEDE" transform="translate(238,223)"/>
<path d="M0 0 C1.86844861 2.80267291 2.99879477 5.24231114 4.1875 8.375 C4.55230469 9.31085938 4.91710937 10.24671875 5.29296875 11.2109375 C6 14 6 14 5.39453125 16.49609375 C4.8148136 20.17529189 6.39102211 21.71465232 8.5 24.6875 C9.72033555 26.42178456 10.90166422 28.1859933 12 30 C11.67 30.66 11.34 31.32 11 32 C3.98679006 24.01945076 -1.49108637 14.6678983 -2.22265625 3.890625 C-2 2 -2 2 0 0 Z " fill="#E4E4E3" transform="translate(232,207)"/>
<path d="M0 0 C0 0.99 0 1.98 0 3 C-1.09957031 3.17015625 -2.19914062 3.3403125 -3.33203125 3.515625 C-11.92680425 4.90413865 -19.9381509 6.56979639 -28 10 C-28.33 9.01 -28.66 8.02 -29 7 C-27.865625 6.54625 -26.73125 6.0925 -25.5625 5.625 C-21.95278308 4.42904194 -21.95278308 4.42904194 -21 2 C-14.25979482 -0.82148124 -7.18854843 -0.17946445 0 0 Z " fill="#E7E7E7" transform="translate(310,95)"/>
<path d="M0 0 C0.66 0 1.32 0 2 0 C0.99586549 2.55179136 -0.03529579 5.07947557 -1.1484375 7.5859375 C-7.02560407 20.94994047 -9.62003033 33.54215412 -10 48 C-10.33 48 -10.66 48 -11 48 C-12.74433914 30.32088707 -9.52141365 15.31529515 0 0 Z " fill="#D8D8D8" transform="translate(244,140)"/>
<path d="M0 0 C0.33 0 0.66 0 1 0 C1.06469482 0.61818604 1.12938965 1.23637207 1.19604492 1.87329102 C2.43683325 13.3492517 3.8236194 24.20558592 7.9140625 35.0390625 C8.89158956 37.70440605 9.53264884 40.2062786 10 43 C9.34 43 8.68 43 8 43 C1.36612963 28.683426 -0.50886778 15.5675848 0 0 Z " fill="#E8E9E7" transform="translate(232,178)"/>
<path d="M0 0 C1.21042969 0.00644531 2.42085938 0.01289062 3.66796875 0.01953125 C6.8125 0.1875 6.8125 0.1875 9.8125 1.1875 C9.8125 2.1775 9.8125 3.1675 9.8125 4.1875 C2.5525 4.1875 -4.7075 4.1875 -12.1875 4.1875 C-12.5175 3.5275 -12.8475 2.8675 -13.1875 2.1875 C-8.63639889 0.42420968 -4.86988499 -0.05741558 0 0 Z " fill="#2B2C28" transform="translate(319.1875,99.8125)"/>
<path d="M0 0 C0.33 0.66 0.66 1.32 1 2 C-9.23235821 4.62849569 -19.52676785 4.18464072 -30 4 C-29.34 3.01 -28.68 2.02 -28 1 C-25.02629377 0.63865323 -22.23158267 0.44104772 -19.25 0.375 C-17.65093849 0.32341737 -16.05197193 0.26879051 -14.453125 0.2109375 C-13.30880005 0.17045288 -13.30880005 0.17045288 -12.14135742 0.12915039 C-1.28949839 -0.5253512 -1.28949839 -0.5253512 0 0 Z " fill="#D4D4D2" transform="translate(340,266)"/>
<path d="M0 0 C1.2065625 0.0309375 1.2065625 0.0309375 2.4375 0.0625 C5.4375 5.8125 5.4375 5.8125 5.4375 8.0625 C4.7775 8.0625 4.1175 8.0625 3.4375 8.0625 C3.1075 9.3825 2.7775 10.7025 2.4375 12.0625 C-2.4375 10.3125 -2.4375 10.3125 -3.5625 8.0625 C-3.6875 4.5 -3.6875 4.5 -3.5625 1.0625 C-2.5625 0.0625 -2.5625 0.0625 0 0 Z " fill="#D5D4CD" transform="translate(387.5625,143.9375)"/>
<path d="M0 0 C3.48193616 2.77916005 4.86160022 6.70410246 6.5625 10.6875 C6.86607422 11.37005859 7.16964844 12.05261719 7.48242188 12.75585938 C10.06758543 18.7203217 12 24.42551133 12 31 C11.34 31 10.68 31 10 31 C9.34 27.7 8.68 24.4 8 21 C7.01 21 6.02 21 5 21 C3.31783298 17.43776395 2.91362145 15.74197056 4 12 C3.63393144 9.25448578 2.69184448 7.38368896 1.4375 4.875 C0 2 0 2 0 0 Z " fill="#FAFAFA" transform="translate(400,140)"/>
<path d="M0 0 C-1.79036458 0.94401042 -3.58072917 1.88802083 -5.37109375 2.83203125 C-7.32267987 3.99019799 -7.32267987 3.99019799 -8 7 C-12.7716576 10.47981859 -17.21102202 11.48241483 -23 11 C-19.54580186 7.00467421 -15.59334843 4.97980341 -10.9375 2.6875 C-10.21755859 2.31560547 -9.49761719 1.94371094 -8.75585938 1.56054688 C-3.37186105 -1.12395368 -3.37186105 -1.12395368 0 0 Z " fill="#FAFAF9" transform="translate(289,99)"/>
<path d="M0 0 C6.76912041 8.03833049 11.90195049 18.66891482 14 29 C13.59765625 32.3515625 13.59765625 32.3515625 13 35 C12.67 35 12.34 35 12 35 C11.8040625 34.01902344 11.608125 33.03804687 11.40625 32.02734375 C9.57533446 23.5577737 7.0612322 16.35704905 2.64257812 8.87475586 C0.67442336 5.51187138 0 4.02266997 0 0 Z " fill="#D6D6D4" transform="translate(390,134)"/>
<path d="M0 0 C0.33 0.99 0.66 1.98 1 3 C-0.78346291 6.03188696 -1.59575156 6.86525052 -5 8 C-5.309375 8.78375 -5.61875 9.5675 -5.9375 10.375 C-7.16478854 13.40712462 -8.43633591 14.09792665 -11 16 C-11.79623822 18.09415804 -11.79623822 18.09415804 -12 20 C-12.99 19.67 -13.98 19.34 -15 19 C-14.67 16.36 -14.34 13.72 -14 11 C-13.01 12.485 -13.01 12.485 -12 14 C-9.70986347 10.5647952 -9.82157027 9.014669 -10 5 C-7.29120665 3.64560332 -4.99066732 3.93498549 -2 4 C-1.34 2.68 -0.68 1.36 0 0 Z " fill="#BEBEBE" transform="translate(363,220)"/>
<path d="M0 0 C4.49829198 2.09066044 8.41296793 4.58516558 12.3125 7.625 C12.87283936 8.05796387 13.43317871 8.49092773 14.01049805 8.93701172 C19.06212575 12.91218138 23.61044115 17.30419285 28 22 C27.34 22.66 26.68 23.32 26 24 C24.29115995 22.37660195 22.62553283 20.70680947 21 19 C21 18.34 21 17.68 21 17 C20.41476562 16.73703125 19.82953125 16.4740625 19.2265625 16.203125 C16.90024319 14.94609632 15.29269508 13.56160982 13.375 11.75 C8.97446245 7.7895162 4.15162845 4.88195608 -1 2 C-0.67 1.34 -0.34 0.68 0 0 Z " fill="#474745" transform="translate(362,108)"/>
<path d="M0 0 C3.72070823 1.24023608 4.62521091 2.95730148 7 6 C7.99 6.66 8.98 7.32 10 8 C10 8.99 10 9.98 10 11 C11.32 11 12.64 11 14 11 C17.42357749 12.28384156 19.52601863 14.34930567 22 17 C20.68 16.67 19.36 16.34 18 16 C18.66 16.66 19.32 17.32 20 18 C19.01 18.33 18.02 18.66 17 19 C14.82722848 17.04808712 12.66177539 15.08902463 10.5 13.125 C9.87996094 12.56941406 9.25992188 12.01382813 8.62109375 11.44140625 C8.03457031 10.90644531 7.44804687 10.37148437 6.84375 9.8203125 C6.29912109 9.32805176 5.75449219 8.83579102 5.19335938 8.32861328 C4 7 4 7 4 5 C3.34 5 2.68 5 2 5 C1.34 3.35 0.68 1.7 0 0 Z " fill="#FAF9F9" transform="translate(245,240)"/>
<path d="M0 0 C0.66 0.99 1.32 1.98 2 3 C0.10435574 3.79211929 -1.79152371 4.58367576 -3.6875 5.375 C-4.74324219 5.81585938 -5.79898437 6.25671875 -6.88671875 6.7109375 C-7.91410156 7.13632812 -8.94148438 7.56171875 -10 8 C-11.299375 8.5878125 -11.299375 8.5878125 -12.625 9.1875 C-16.34857756 10.46135548 -19.16121808 9.650641 -23 9 C-23 8.67 -23 8.34 -23 8 C-22.09378906 7.75765625 -21.18757813 7.5153125 -20.25390625 7.265625 C-13.24103821 5.33615866 -6.5341534 3.24979058 0 0 Z " fill="#393938" transform="translate(359,260)"/>
<path d="M0 0 C0.99 0.495 0.99 0.495 2 1 C3.38902614 6.43224237 3.18365294 12.05445544 3.1875 17.625 C3.19974609 18.56601563 3.21199219 19.50703125 3.22460938 20.4765625 C3.22654297 21.3840625 3.22847656 22.2915625 3.23046875 23.2265625 C3.23457764 24.04721191 3.23868652 24.86786133 3.24291992 25.71337891 C3 28 3 28 1 32 C0.67 21.44 0.34 10.88 0 0 Z " fill="#EEEEEB" transform="translate(403,166)"/>
<path d="M0 0 C1.23513522 2.93254328 0.97144678 4.08410223 -0.07421875 7.1640625 C-0.60660156 8.30617187 -1.13898438 9.44828125 -1.6875 10.625 C-2.20699219 11.77226562 -2.72648438 12.91953125 -3.26171875 14.1015625 C-5.00629164 17.01049078 -5.84812975 17.94250976 -9 19 C-8.33333333 17 -7.66666667 15 -7 13 C-6.78214844 12.25363281 -6.56429687 11.50726563 -6.33984375 10.73828125 C-4.96344811 6.18790223 -3.85817371 3.05993087 0 0 Z " fill="#EAEAEA" transform="translate(241,136)"/>
<path d="M0 0 C0.99 0 1.98 0 3 0 C3.12375 0.804375 3.2475 1.60875 3.375 2.4375 C3.684375 3.7059375 3.684375 3.7059375 4 5 C4.66 5.33 5.32 5.66 6 6 C6 7.98 6 9.96 6 12 C4.68 11.34 3.36 10.68 2 10 C1.34 11.65 0.68 13.3 0 15 C-1.13825019 11.58524944 -0.70549041 10.4490642 0 7 C0.03824623 4.66698014 0.04574284 2.33288492 0 0 Z " fill="#F0F0EE" transform="translate(384,154)"/>
<path d="M0 0 C0.33 0 0.66 0 1 0 C1.05869332 3.49992803 1.09382709 6.9997272 1.125 10.5 C1.14175781 11.48226562 1.15851563 12.46453125 1.17578125 13.4765625 C1.21499874 19.35918665 0.70432638 24.36364503 -1 30 C-1.66 30 -2.32 30 -3 30 C-2.86722656 28.92363281 -2.73445313 27.84726563 -2.59765625 26.73828125 C-1.51531121 17.83297542 -0.59170533 8.95343594 0 0 Z " fill="#2A2B28" transform="translate(407,176)"/>
<path d="M0 0 C0.99 0.66 1.98 1.32 3 2 C2.42647107 5.87132028 0.51295648 8.08172796 -2 11 C-3.32 10.67 -4.64 10.34 -6 10 C-4.6302836 6.00499382 -2.74277578 3.19990508 0 0 Z " fill="#262722" transform="translate(388,225)"/>
<path d="M0 0 C-0.33 0.33 -0.66 0.66 -1 1 C-0.01 1.66 0.98 2.32 2 3 C-5.92 4.485 -5.92 4.485 -14 6 C-14 5.34 -14 4.68 -14 4 C-13.34 3.67 -12.68 3.34 -12 3 C-12.33 2.34 -12.66 1.68 -13 1 C-11.58622218 0.63447197 -10.16879424 0.28304505 -8.75 -0.0625 C-7.96109375 -0.25972656 -7.1721875 -0.45695312 -6.359375 -0.66015625 C-3.89605178 -1.01497267 -2.34395868 -0.76877544 0 0 Z " fill="#30312B" transform="translate(308,102)"/>
<path d="M0 0 C0.33 0 0.66 0 1 0 C1.0825 0.7425 1.165 1.485 1.25 2.25 C1.78493252 5.13123469 1.78493252 5.13123469 4.0625 7 C6 9 6 9 6.25 11.75 C6.1675 12.4925 6.085 13.235 6 14 C4.1484375 13.76953125 4.1484375 13.76953125 2 13 C0.6640625 11.07421875 0.6640625 11.07421875 -0.375 8.6875 C-0.91253906 7.51767578 -0.91253906 7.51767578 -1.4609375 6.32421875 C-2 4 -2 4 -1.1015625 1.70703125 C-0.73804688 1.14371094 -0.37453125 0.58039063 0 0 Z " fill="#1E201B" transform="translate(241,209)"/>
<path d="M0 0 C0.66 0.99 1.32 1.98 2 3 C1.34 3 0.68 3 0 3 C-0.1511885 5.84852077 -0.1511885 5.84852077 0.58984375 7.859375 C1.13345451 10.69650544 0.45954722 12.52297645 -0.4375 15.25 C-0.72496094 16.14203125 -1.01242188 17.0340625 -1.30859375 17.953125 C-1.53675781 18.62859375 -1.76492187 19.3040625 -2 20 C-2.99 19.34 -3.98 18.68 -5 18 C-3.25740319 5.33029613 -3.25740319 5.33029613 0 0 Z " fill="#F2F2F2" transform="translate(234,146)"/>
<path d="M0 0 C3.23602185 3.81388289 5.83208564 7.50358503 8 12 C7.75 14.9375 7.75 14.9375 7 17 C6.34 16.01 5.68 15.02 5 14 C4.41863281 13.13246094 3.83726562 12.26492187 3.23828125 11.37109375 C2.60277344 10.40300781 1.96726563 9.43492187 1.3125 8.4375 C0.66925781 7.46683594 0.02601563 6.49617187 -0.63671875 5.49609375 C-1.08660156 4.67238281 -1.53648437 3.84867188 -2 3 C-1 1 -1 1 0 0 Z " fill="#DFDFDF" transform="translate(238,223)"/>
<path d="M0 0 C0.99 0.33 1.98 0.66 3 1 C1.54821438 4.38749978 -0.36940603 6.45161209 -3 9 C-3.99 10.485 -3.99 10.485 -5 12 C-5.66 12 -6.32 12 -7 12 C-7.33663062 8.29706315 -7.47736015 6.60465619 -5.125 3.625 C-3 2 -3 2 -1 2 C-0.67 1.34 -0.34 0.68 0 0 Z " fill="#282827" transform="translate(293,236)"/>
<path d="M0 0 C0.66 0.33 1.32 0.66 2 1 C-2.21849699 7.09061103 -6.50719645 13.1083382 -11 19 C-11.66 18.67 -12.32 18.34 -13 18 C-11.40620833 15.36856724 -9.79823727 12.74608847 -8.1875 10.125 C-7.73568359 9.37863281 -7.28386719 8.63226563 -6.81835938 7.86328125 C-6.15610352 6.79013672 -6.15610352 6.79013672 -5.48046875 5.6953125 C-4.87561646 4.7055542 -4.87561646 4.7055542 -4.25854492 3.69580078 C-3 2 -3 2 0 0 Z " fill="#D2D2D2" transform="translate(317,203)"/>
<path d="M0 0 C1.6260287 0.06000106 3.25101549 0.1487885 4.875 0.25 C6.23238281 0.31960938 6.23238281 0.31960938 7.6171875 0.390625 C10 1 10 1 11.3203125 3.046875 C11.54460937 3.69140625 11.76890625 4.3359375 12 5 C2.58997722 5.18451025 2.58997722 5.18451025 -2 4 C-2 3.34 -2 2.68 -2 2 C-1.34 2 -0.68 2 0 2 C0 1.34 0 0.68 0 0 Z " fill="#757574" transform="translate(300,268)"/>
<path d="M0 0 C0.33 0.99 0.66 1.98 1 3 C-0.1875 5.3125 -0.1875 5.3125 -2 8 C-2.64324219 8.96679688 -3.28648437 9.93359375 -3.94921875 10.9296875 C-4.62597656 11.94289062 -5.30273438 12.95609375 -6 14 C-7.84694989 16.95659444 -9.68476966 19.9186439 -11.51953125 22.8828125 C-13 25 -13 25 -15 26 C-13.65152264 22.36707683 -12.01515006 19.20068097 -9.9609375 15.91796875 C-9.38085938 14.98662109 -8.80078125 14.05527344 -8.203125 13.09570312 C-7.59984375 12.13599609 -6.9965625 11.17628906 -6.375 10.1875 C-5.45847656 8.71893555 -5.45847656 8.71893555 -4.5234375 7.22070312 C-3.01918285 4.81154528 -1.5112726 2.40475932 0 0 Z " fill="#E4E4E4" transform="translate(337,167)"/>
<path d="M0 0 C0.33 0.66 0.66 1.32 1 2 C0.67 2.66 0.34 3.32 0 4 C0.66 4 1.32 4 2 4 C1.60000283 6.31998359 1.09432121 7.86323424 -0.25 9.8125 C-2 11 -2 11 -4.6875 10.6875 C-5.450625 10.460625 -6.21375 10.23375 -7 10 C-2.85714286 2.42857143 -2.85714286 2.42857143 0 0 Z " fill="#D9D9D2" transform="translate(258,131)"/>
<path d="M0 0 C1.61725534 3.00950123 2.67582623 5.97103608 3.625 9.25 C3.88539063 10.14203125 4.14578125 11.0340625 4.4140625 11.953125 C4.60742188 12.62859375 4.80078125 13.3040625 5 14 C4.01 13.67 3.02 13.34 2 13 C1.3125 10.9375 1.3125 10.9375 1 9 C0.01 9.33 -0.98 9.66 -2 10 C-2.66 7.36 -3.32 4.72 -4 2 C-3.01 2.33 -2.02 2.66 -1 3 C-0.67 2.01 -0.34 1.02 0 0 Z " fill="#33332F" transform="translate(240,201)"/>
<path d="M0 0 C6.04801071 0.54981916 11.30601106 1.90429574 17 4 C17 4.33 17 4.66 17 5 C10.19796625 5.37634203 5.24309927 4.77471079 -1 2 C-0.67 1.34 -0.34 0.68 0 0 Z " fill="#F1F2F0" transform="translate(281,266)"/>
<path d="M0 0 C5.2489608 1.12477731 7.45705842 3.24994924 10.60546875 7.34375 C12.08679152 9.2595142 12.08679152 9.2595142 15 11 C15.6875 13.625 15.6875 13.625 16 16 C12.300269 14.76675633 11.46194268 13.32348882 9.125 10.25 C6.26235417 6.5634192 3.4017189 3.18911147 0 0 Z " fill="#F8F8F5" transform="translate(364,127)"/>
<path d="M0 0 C0.33 0 0.66 0 1 0 C1.66 3.96 2.32 7.92 3 12 C2.01 12.495 2.01 12.495 1 13 C1 12.01 1 11.02 1 10 C0.38125 9.95875 -0.2375 9.9175 -0.875 9.875 C-1.926875 9.441875 -1.926875 9.441875 -3 9 C-4.25 5.9375 -4.25 5.9375 -5 3 C-3.68 3 -2.36 3 -1 3 C-0.67 2.01 -0.34 1.02 0 0 Z " fill="#E8E9E3" transform="translate(285,242)"/>
<path d="M0 0 C3 1 3 1 4.09765625 3.109375 C4.41605469 3.98078125 4.73445313 4.8521875 5.0625 5.75 C5.38347656 6.61109375 5.70445312 7.4721875 6.03515625 8.359375 C6.35355469 9.23078125 6.67195313 10.1021875 7 11 C7.66149738 12.66872509 8.32663084 14.33602999 9 16 C7.68 16.33 6.36 16.66 5 17 C3.04911777 11.38145918 1.36827653 5.78886224 0 0 Z " fill="#E2E2E2" transform="translate(397,137)"/>
<path d="M0 0 C2.99198859 2.99198859 4.44857048 6.81515604 6.2578125 10.59375 C8.22746935 14.63672984 10.42908162 18.30784409 13 22 C12.67 22.66 12.34 23.32 12 24 C8.32938902 19.85392128 5.60787884 15.84398967 3.1875 10.875 C2.87619141 10.26785156 2.56488281 9.66070312 2.24414062 9.03515625 C0.58555765 5.6888284 0 3.82066156 0 0 Z " fill="#FCFCFC" transform="translate(231,215)"/>
<path d="M0 0 C0 3 0 3 -1 7 C4.94 9.475 4.94 9.475 11 12 C6.53672476 13.11581881 5.39238394 12.68986512 1.25 11.0625 C0.26515625 10.68222656 -0.7196875 10.30195313 -1.734375 9.91015625 C-2.48203125 9.60980469 -3.2296875 9.30945313 -4 9 C-3.34820749 5.18416621 -2.53101025 2.97118595 0 0 Z " fill="#F2F2EF" transform="translate(292,241)"/>
<path d="M0 0 C0.66 0.33 1.32 0.66 2 1 C0.35 2.65 -1.3 4.3 -3 6 C1.29 6.33 5.58 6.66 10 7 C10 7.33 10 7.66 10 8 C4.06 8 -1.88 8 -8 8 C-2.25 1.125 -2.25 1.125 0 0 Z " fill="#FAFAF7" transform="translate(270,127)"/>
<path d="M0 0 C0.43570313 0.37511719 0.87140625 0.75023437 1.3203125 1.13671875 C5.18607599 4.45859777 9.07657648 7.74642927 13 11 C12.01 11.66 11.02 12.32 10 13 C6.37 9.37 2.74 5.74 -1 2 C-0.67 1.34 -0.34 0.68 0 0 Z " fill="#212221" transform="translate(250,238)"/>
<path d="M0 0 C3.08089673 2.77280706 4.68775452 5.06326356 6 9 C4.02 9.99 4.02 9.99 2 11 C-0.26881841 7.91440696 -1.05451946 6.57790624 -0.6875 2.6875 C-0.460625 1.800625 -0.23375 0.91375 0 0 Z " fill="#32322E" transform="translate(388,135)"/>
<path d="M0 0 C0.66 0.33 1.32 0.66 2 1 C2 5 2 5 0.6875 6.38671875 C-0.875 7.59114583 -2.4375 8.79557292 -4 10 C-4.8125 7.8125 -4.8125 7.8125 -5 5 C-2.5625 2.1875 -2.5625 2.1875 0 0 Z " fill="#F6F6F6" transform="translate(390,239)"/>
<path d="M0 0 C2.31 1.98 4.62 3.96 7 6 C6.67 7.32 6.34 8.64 6 10 C4.0625 9.3125 4.0625 9.3125 2 8 C1.25 5.375 1.25 5.375 1 3 C0.34 3 -0.32 3 -1 3 C-0.67 2.01 -0.34 1.02 0 0 Z " fill="#1E1E1A" transform="translate(257,235)"/>
<path d="M0 0 C0.33 0 0.66 0 1 0 C0.22602467 6.70778622 -0.85768588 13.34574301 -2 20 C-2.33 20 -2.66 20 -3 20 C-3.33452052 12.56621057 -3.13902852 6.80122845 0 0 Z " fill="#343435" transform="translate(234,158)"/>
<path d="M0 0 C-3.43339665 1.79683903 -6.96194164 3.25792677 -10.5625 4.6875 C-11.69816406 5.14511719 -12.83382813 5.60273437 -14.00390625 6.07421875 C-17 7 -17 7 -20 6 C-18.41925436 5.18247697 -16.83528777 4.37118003 -15.25 3.5625 C-14.36828125 3.11003906 -13.4865625 2.65757813 -12.578125 2.19140625 C-8.2329422 0.18340511 -4.78192259 -0.10868006 0 0 Z " fill="#F9FAF6" transform="translate(304,112)"/>
<path d="M0 0 C0.99 0.33 1.98 0.66 3 1 C2.071875 1.8971875 2.071875 1.8971875 1.125 2.8125 C-1.13676954 5.00811144 -1.13676954 5.00811144 -3 8 C-4.65948148 9.01187895 -6.32580562 10.0126546 -8 11 C-8.33 11.66 -8.66 12.32 -9 13 C-9.99 12.67 -10.98 12.34 -12 12 C-8.04 8.04 -4.08 4.08 0 0 Z " fill="#C9C9C9" transform="translate(368,169)"/>
<path d="M0 0 C1.32 1.32 2.64 2.64 4 4 C3.67 4.99 3.34 5.98 3 7 C3.88319294 10.15020361 3.88319294 10.15020361 5 13 C2.0755255 10.36797295 -0.02154932 7.39162974 -2 4 C-1 1 -1 1 0 0 Z " fill="#F0F0F0" transform="translate(395,132)"/>
<path d="M0 0 C1.09570312 0.00902344 2.19140625 0.01804687 3.3203125 0.02734375 C4.16335938 0.03894531 5.00640625 0.05054687 5.875 0.0625 C5.545 0.7225 5.215 1.3825 4.875 2.0625 C1.99288698 3.02320434 0.17649956 3.16831883 -2.8125 3.125 C-4.02486328 3.11146484 -4.02486328 3.11146484 -5.26171875 3.09765625 C-6.18404297 3.08025391 -6.18404297 3.08025391 -7.125 3.0625 C-7.455 2.4025 -7.785 1.7425 -8.125 1.0625 C-5.36047967 -0.31976016 -3.0788637 -0.03275387 0 0 Z " fill="#191A14" transform="translate(314.125,100.9375)"/>
<path d="M0 0 C1.75091019 0.08754551 3.50079551 0.19573373 5.25 0.3125 C6.22453125 0.37050781 7.1990625 0.42851563 8.203125 0.48828125 C11 1 11 1 15 4 C8.07 3.505 8.07 3.505 1 3 C0.67 2.01 0.34 1.02 0 0 Z " fill="#E4E4E3" transform="translate(328,95)"/>
<path d="M0 0 C0.66 0.99 1.32 1.98 2 3 C-0.31 5.31 -2.62 7.62 -5 10 C-5.99 9.34 -6.98 8.68 -8 8 C-5.36 5.36 -2.72 2.72 0 0 Z " fill="#3C3C3A" transform="translate(385,240)"/>
<path d="M0 0 C4.09480199 3.74381897 7.7448683 7.8668907 10 13 C9.67 13.99 9.34 14.98 9 16 C7.49445366 13.71180854 5.99542957 11.41978831 4.5 9.125 C4.07074219 8.47402344 3.64148438 7.82304687 3.19921875 7.15234375 C0 2.2265625 0 2.2265625 0 0 Z " fill="#3C3C3B" transform="translate(389,131)"/>
<path d="M0 0 C0.33 0.99 0.66 1.98 1 3 C-0.78346291 6.03188696 -1.59575156 6.86525052 -5 8 C-6.66710346 9.49985609 -6.66710346 9.49985609 -8 11 C-9 8 -9 8 -9 4 C-6.69 4 -4.38 4 -2 4 C-1.34 2.68 -0.68 1.36 0 0 Z " fill="#727272" transform="translate(363,220)"/>
<path d="M0 0 C1.98 1.65 3.96 3.3 6 5 C4.68 5.99 3.36 6.98 2 8 C2 7.34 2 6.68 2 6 C1.0409375 5.566875 1.0409375 5.566875 0.0625 5.125 C-2 4 -2 4 -3 2 C-2.01 1.34 -1.02 0.68 0 0 Z " fill="#33342F" transform="translate(378,124)"/>
<path d="M0 0 C3.84411747 1.56612193 6.15950209 4.02094121 9 7 C9.928125 7.928125 10.85625 8.85625 11.8125 9.8125 C12.534375 10.534375 13.25625 11.25625 14 12 C13.67 12.99 13.34 13.98 13 15 C11.20580474 13.06478939 9.41458671 11.1269646 7.625 9.1875 C6.86316406 8.36668945 6.86316406 8.36668945 6.0859375 7.52929688 C3.84783697 5.09977985 1.83620888 2.75431332 0 0 Z " fill="#E7E8E5" transform="translate(376,121)"/>
<path d="M0 0 C0.99 0.66 1.98 1.32 3 2 C2.3125 3.9375 2.3125 3.9375 1 6 C-1.625 6.75 -1.625 6.75 -4 7 C-3.6875 4.625 -3.6875 4.625 -3 2 C-2.01 1.34 -1.02 0.68 0 0 Z " fill="#E2E2E1" transform="translate(258,115)"/>
<path d="M0 0 C-1.23263349 3.69790046 -2.20052451 3.9354846 -5.5625 5.6875 C-6.80193359 6.34298828 -6.80193359 6.34298828 -8.06640625 7.01171875 C-8.70449219 7.33785156 -9.34257812 7.66398437 -10 8 C-9.3989083 4.51073599 -9.12082221 4.09455652 -6.125 1.75 C-3 0 -3 0 0 0 Z " fill="#EAEAE7" transform="translate(373,250)"/>
<path d="M0 0 C2 3 2 3 1.828125 4.97265625 C1.63734375 5.66230469 1.4465625 6.35195312 1.25 7.0625 C0.97929687 8.10083984 0.97929687 8.10083984 0.703125 9.16015625 C0 11 0 11 -2 13 C-3.18771723 9.57056481 -2.80226223 7.62215325 -1.5625 4.25 C-1.27503906 3.45078125 -0.98757813 2.6515625 -0.69140625 1.828125 C-0.46324219 1.22484375 -0.23507812 0.6215625 0 0 Z " fill="#CCCCCA" transform="translate(399,210)"/>
<path d="M0 0 C0.66 0.33 1.32 0.66 2 1 C-1.76843047 5.12172083 -5.88904305 8.63068221 -11 11 C-11.66 10.67 -12.32 10.34 -13 10 C-9.46786925 7.09118644 -5.80487289 4.53658193 -2 2 C-1.34 1.34 -0.68 0.68 0 0 Z " fill="#D4D4D4" transform="translate(328,206)"/>
<path d="M0 0 C0.66 0 1.32 0 2 0 C0.31326082 4.49797113 -1.81673892 8.72886302 -4 13 C-5.0169313 10.34501768 -5.13022151 9.30844625 -4.00390625 6.640625 C-3.52824219 5.85171875 -3.05257812 5.0628125 -2.5625 4.25 C-2.08941406 3.45078125 -1.61632812 2.6515625 -1.12890625 1.828125 C-0.75636719 1.22484375 -0.38382813 0.6215625 0 0 Z " fill="#DEDFDE" transform="translate(244,140)"/>
<path d="M0 0 C2.86724686 0.57344937 3.8614515 0.8614515 6 3 C5.625 5.125 5.625 5.125 5 7 C3.0625 6.3125 3.0625 6.3125 1 5 C0.25 2.375 0.25 2.375 0 0 Z " fill="#E2E2E2" transform="translate(389,127)"/>
<path d="M0 0 C0.66 0.66 1.32 1.32 2 2 C-3.445 5.96 -3.445 5.96 -9 10 C-9.66 9.34 -10.32 8.68 -11 8 C-7.37 5.36 -3.74 2.72 0 0 Z " fill="#4C4C4A" transform="translate(273,109)"/>
<path d="M0 0 C2.0625 0.75 2.0625 0.75 4 2 C4.33 2.99 4.66 3.98 5 5 C-0.75 5.125 -0.75 5.125 -3 4 C-2.67 3.01 -2.34 2.02 -2 1 C-1.34 0.67 -0.68 0.34 0 0 Z " fill="#1D1E19" transform="translate(280,253)"/>
<path d="M0 0 C0.66 0.33 1.32 0.66 2 1 C-2 7.57142857 -2 7.57142857 -6 9 C-6.66 8.34 -7.32 7.68 -8 7 C-5.36 4.69 -2.72 2.38 0 0 Z " fill="#DBDBD8" transform="translate(379,242)"/>
<path d="M0 0 C0.33 0 0.66 0 1 0 C1.66 4.62 2.32 9.24 3 14 C2.01 14.495 2.01 14.495 1 15 C-0.96263236 9.4584498 -1.01603857 5.79141983 0 0 Z " fill="#DADAD9" transform="translate(234,194)"/>
<path d="M0 0 C0.66 0.99 1.32 1.98 2 3 C1.3125 6.125 1.3125 6.125 0 9 C-0.99 9.33 -1.98 9.66 -3 10 C-2.835 9.071875 -2.67 8.14375 -2.5 7.1875 C-1.92251612 4.04378647 -1.92251612 4.04378647 -2 1 C-1.34 0.67 -0.68 0.34 0 0 Z " fill="#E8E8E3" transform="translate(253,140)"/>
<path d="M0 0 C2.475 0.99 2.475 0.99 5 2 C5 3.32 5 4.64 5 6 C3.125 5.75 3.125 5.75 1 5 C-0.25 2.9375 -0.25 2.9375 -1 1 C-0.67 0.67 -0.34 0.34 0 0 Z " fill="#24251F" transform="translate(372,120)"/>
<path d="M0 0 C0.66 0.33 1.32 0.66 2 1 C1.3125 3.375 1.3125 3.375 0 6 C-2.625 7.3125 -2.625 7.3125 -5 8 C-5.33 7.01 -5.66 6.02 -6 5 C-4.02 3.35 -2.04 1.7 0 0 Z " fill="#E4E4E3" transform="translate(378,250)"/>
<path d="M0 0 C1.5 1.3125 1.5 1.3125 3 3 C3 6 3 6 2 8 C0.0625 7.1875 0.0625 7.1875 -2 6 C-2.33 5.01 -2.66 4.02 -3 3 C-2.01 2.01 -1.02 1.02 0 0 Z " fill="#EBECE3" transform="translate(271,239)"/>
<path d="M0 0 C1.72217143 2.63390925 2.00455315 3.92411417 1.8125 7.125 C1 10 1 10 -2 12 C-1.44687265 7.97007218 -0.8441938 3.97977076 0 0 Z " fill="#323232" transform="translate(352,223)"/>
<path d="M0 0 C0.99 0.33 1.98 0.66 3 1 C2.01 4.3 1.02 7.6 0 11 C-2 7 -2 7 -1.125 3.25 C-0.75375 2.1775 -0.3825 1.105 0 0 Z " fill="#414240" transform="translate(403,205)"/>
<path d="M0 0 C1.98 0.495 1.98 0.495 4 1 C3.1875 3.9375 3.1875 3.9375 2 7 C1.01 7.33 0.02 7.66 -1 8 C-0.67 5.36 -0.34 2.72 0 0 Z " fill="#E3E5E4" transform="translate(404,210)"/>
<path d="M0 0 C1.79068573 2.6860286 2.66055791 4.6626589 3.625 7.6875 C3.88539063 8.49574219 4.14578125 9.30398437 4.4140625 10.13671875 C4.60742188 10.75160156 4.80078125 11.36648437 5 12 C4.34 12.66 3.68 13.32 3 14 C1.68 9.71 0.36 5.42 -1 1 C-0.67 0.67 -0.34 0.34 0 0 Z " fill="#484847" transform="translate(399,146)"/>
<path d="M0 0 C1.98 0.66 3.96 1.32 6 2 C5.67 2.99 5.34 3.98 5 5 C3.35 4.67 1.7 4.34 0 4 C0 2.68 0 1.36 0 0 Z " fill="#22231D" transform="translate(349,106)"/>
<path d="M0 0 C0.91007812 0.00902344 1.82015625 0.01804687 2.7578125 0.02734375 C3.45648438 0.03894531 4.15515625 0.05054688 4.875 0.0625 C2.47736815 2.46013185 1.54226502 2.40530586 -1.75 2.6875 C-2.56726563 2.76226562 -3.38453125 2.83703125 -4.2265625 2.9140625 C-4.85304688 2.96304687 -5.47953125 3.01203125 -6.125 3.0625 C-6.455 2.4025 -6.785 1.7425 -7.125 1.0625 C-4.60024538 -0.19987731 -2.81299534 -0.03606404 0 0 Z " fill="#2A2A2A" transform="translate(335.125,268.9375)"/>
<path d="M0 0 C0.66 0.33 1.32 0.66 2 1 C0.71186658 1.83878455 -0.58063256 2.67086783 -1.875 3.5 C-2.59429687 3.9640625 -3.31359375 4.428125 -4.0546875 4.90625 C-6 6 -6 6 -8 6 C-7 3 -7 3 -3.5625 1.25 C-2.386875 0.8375 -1.21125 0.425 0 0 Z " fill="#2C2C2A" transform="translate(368,256)"/>
<path d="M0 0 C1.98 1.65 3.96 3.3 6 5 C5.01 6.485 5.01 6.485 4 8 C1 6 1 6 0 3 C-0.66 2.34 -1.32 1.68 -2 1 C-1.34 0.67 -0.68 0.34 0 0 Z " fill="#D8D8D7" transform="translate(254,245)"/>
<path d="M0 0 C0.33 1.32 0.66 2.64 1 4 C0.01 4.495 0.01 4.495 -1 5 C-1.33 5.66 -1.66 6.32 -2 7 C-3.64363134 7.72159424 -5.31050386 8.39351421 -7 9 C-2.85714286 2.57142857 -2.85714286 2.57142857 0 0 Z " fill="#2E2E2E" transform="translate(330,188)"/>
<path d="M0 0 C1.32 0.99 2.64 1.98 4 3 C2.68 4.32 1.36 5.64 0 7 C-0.66 6.67 -1.32 6.34 -2 6 C-2 2 -2 2 0 0 Z " fill="#F6F6F6" transform="translate(253,119)"/>
<path d="M0 0 C0.66 0 1.32 0 2 0 C1.75 2.375 1.75 2.375 1 5 C-1.0625 6.3125 -1.0625 6.3125 -3 7 C-2.25 2.25 -2.25 2.25 0 0 Z " fill="#252622" transform="translate(269,116)"/>
<path d="M0 0 C0.33 0.66 0.66 1.32 1 2 C-5.4 3.35384615 -5.4 3.35384615 -8.4375 1.5625 C-8.953125 1.046875 -9.46875 0.53125 -10 0 C-3.34250344 -1.36176066 -3.34250344 -1.36176066 0 0 Z " fill="#CDCDCB" transform="translate(340,266)"/>
<path d="M0 0 C0 0.99 0 1.98 0 3 C-0.66 3 -1.32 3 -2 3 C-2 3.66 -2 4.32 -2 5 C-3.98 5.33 -5.96 5.66 -8 6 C-3.375 0 -3.375 0 0 0 Z " fill="#C1C1C1" transform="translate(313,219)"/>
<path d="M0 0 C2 1 2 1 3 3 C-0.465 4.485 -0.465 4.485 -4 6 C-4.66 5.34 -5.32 4.68 -6 4 C-4.02 2.68 -2.04 1.36 0 0 Z " fill="#DBDBD9" transform="translate(278,103)"/>
<path d="M0 0 C0 3 0 3 -1.3125 4.60546875 C-1.869375 5.12753906 -2.42625 5.64960938 -3 6.1875 C-3.556875 6.71730469 -4.11375 7.24710938 -4.6875 7.79296875 C-5.120625 8.19128906 -5.55375 8.58960938 -6 9 C-6.66 8.67 -7.32 8.34 -8 8 C-7.04578192 6.85073734 -6.08647955 5.70569459 -5.125 4.5625 C-4.59132813 3.92441406 -4.05765625 3.28632813 -3.5078125 2.62890625 C-2 1 -2 1 0 0 Z " fill="#F0F0EF" transform="translate(386,237)"/>
<path d="M0 0 C0.33 0.99 0.66 1.98 1 3 C1.66 3.33 2.32 3.66 3 4 C2.01 4.66 1.02 5.32 0 6 C-0.66 5.67 -1.32 5.34 -2 5 C-4.09821215 5.39938767 -4.09821215 5.39938767 -6 6 C-4 4 -2 2 0 0 Z " fill="#33342E" transform="translate(376,239)"/>
<path d="M0 0 C0.99 0 1.98 0 3 0 C1.25 5.75 1.25 5.75 -1 8 C-1.66 7.67 -2.32 7.34 -3 7 C-1.125 2.25 -1.125 2.25 0 0 Z " fill="#D8D8D6" transform="translate(399,224)"/>
<path d="M0 0 C0.99 0.33 1.98 0.66 3 1 C3.33 2.65 3.66 4.3 4 6 C2.68 6.33 1.36 6.66 0 7 C0 4.69 0 2.38 0 0 Z " fill="#9C9D99" transform="translate(384,145)"/>
<path d="M0 0 C-2.52956528 3.0916909 -5.22454612 3.90931332 -9 5 C-9.33 4.01 -9.66 3.02 -10 2 C-3.375 -1.125 -3.375 -1.125 0 0 Z " fill="#DEDEDD" transform="translate(291,100)"/>
<path d="M0 0 C0.99 0.495 0.99 0.495 2 1 C3.1577506 4.47325181 3.06866652 7.36067448 3 11 C0.60236815 8.60236815 0.65719414 7.66726502 0.375 4.375 C0.30023438 3.55773437 0.22546875 2.74046875 0.1484375 1.8984375 C0.09945313 1.27195313 0.05046875 0.64546875 0 0 Z " fill="#383836" transform="translate(403,158)"/>
<path d="M0 0 C0.99 0 1.98 0 3 0 C1.66511872 3.59391114 0.03977277 6.75490696 -2 10 C-3 8 -3 8 -2.125 5 C-1 2 -1 2 0 0 Z " fill="#959595" transform="translate(342,156)"/>
<path d="M0 0 C0.95465783 2.16967689 1.14401212 3.56328793 0.3984375 5.82421875 C-0.35870385 7.5684743 -1.17609198 9.28627131 -2 11 C-2.98247098 7.9434236 -3.07716184 6.03563791 -2 3 C-1.34 2.01 -0.68 1.02 0 0 Z " fill="#E0E0E0" transform="translate(241,136)"/>
<path d="M0 0 C0 0.66 0 1.32 0 2 C-5.17578125 5.22265625 -5.17578125 5.22265625 -7 6 C-7.99 5.67 -8.98 5.34 -10 5 C-8.71186658 4.16121545 -7.41936744 3.32913217 -6.125 2.5 C-5.40570313 2.0359375 -4.68640625 1.571875 -3.9453125 1.09375 C-2 0 -2 0 0 0 Z " fill="#CBCBC9" transform="translate(282,107)"/>
<path d="M0 0 C1.32 0.33 2.64 0.66 4 1 C3.67 2.32 3.34 3.64 3 5 C0.03 4.505 0.03 4.505 -3 4 C-2.34 3.67 -1.68 3.34 -1 3 C-0.67 2.01 -0.34 1.02 0 0 Z " fill="#32332E" transform="translate(345,104)"/>
<path d="M0 0 C1.2065625 0.0309375 1.2065625 0.0309375 2.4375 0.0625 C2.1075 0.7225 1.7775 1.3825 1.4375 2.0625 C0.7775 2.0625 0.1175 2.0625 -0.5625 2.0625 C-0.5625 2.7225 -0.5625 3.3825 -0.5625 4.0625 C-1.8825 4.3925 -3.2025 4.7225 -4.5625 5.0625 C-3.43829114 0.08386076 -3.43829114 0.08386076 0 0 Z " fill="#20211C" transform="translate(294.5625,103.9375)"/>
<path d="M0 0 C1.32 0.33 2.64 0.66 4 1 C4 1.66 4 2.32 4 3 C1.69 3.33 -0.62 3.66 -3 4 C-2.01 2.68 -1.02 1.36 0 0 Z " fill="#1D1E19" transform="translate(348,258)"/>
<path d="M0 0 C1.46067199 0.45082469 2.91848032 0.91093537 4.375 1.375 C5.18710937 1.63023437 5.99921875 1.88546875 6.8359375 2.1484375 C9 3 9 3 11 5 C9.375 5.75 9.375 5.75 7 6 C1.4109589 2.82191781 1.4109589 2.82191781 0 0 Z " fill="#DBDBDA" transform="translate(260,254)"/>
<path d="M0 0 C0.66 0 1.32 0 2 0 C0.55746343 3.36591866 -1.33264727 5.51047079 -4 8 C-4.33 6.68 -4.66 5.36 -5 4 C-4.01 4 -3.02 4 -2 4 C-1.34 2.68 -0.68 1.36 0 0 Z " fill="#252525" transform="translate(308,218)"/>
<path d="M0 0 C0.66 0.33 1.32 0.66 2 1 C2.6328125 3.50390625 2.6328125 3.50390625 3.125 6.5625 C3.29257812 7.57441406 3.46015625 8.58632812 3.6328125 9.62890625 C3.75398438 10.41136719 3.87515625 11.19382813 4 12 C3.34 12 2.68 12 2 12 C1.87882812 11.37351563 1.75765625 10.74703125 1.6328125 10.1015625 C1.46523438 9.28429687 1.29765625 8.46703125 1.125 7.625 C0.96257812 6.81289062 0.80015625 6.00078125 0.6328125 5.1640625 C0.13341068 2.81326077 0.13341068 2.81326077 -2 1 C-1.34 0.67 -0.68 0.34 0 0 Z " fill="#E3E3E3" transform="translate(407,160)"/>
<path d="M0 0 C0.66 0.33 1.32 0.66 2 1 C-0.64 2.98 -3.28 4.96 -6 7 C-6.66 6.67 -7.32 6.34 -8 6 C-5.36 4.02 -2.72 2.04 0 0 Z " fill="#DDDDDB" transform="translate(271,113)"/>
<path d="M0 0 C3.36591866 1.44253657 5.51047079 3.33264727 8 6 C5.07120629 5.37240135 2.63904371 4.41377341 0 3 C0 2.01 0 1.02 0 0 Z " fill="#ECECEA" transform="translate(259,251)"/>
<path d="M0 0 C0.66 0.99 1.32 1.98 2 3 C0.75453595 6.73639216 -0.63404953 7.18756513 -4 9 C-2.80100302 5.9168649 -1.52299523 2.93720508 0 0 Z " fill="#CACACA" transform="translate(355,227)"/>
<path d="M0 0 C4.875 4.75 4.875 4.75 6 7 C4.125 6.6875 4.125 6.6875 2 6 C0 3 0 3 0 0 Z " fill="#E4E5E3" transform="translate(247,230)"/>
<path d="M0 0 C0.99 0.33 1.98 0.66 3 1 C3.33 3.31 3.66 5.62 4 8 C1.10067643 5.60490662 0.49831724 3.68754757 0 0 Z " fill="#2B2B2B" transform="translate(236,216)"/>
<path d="M0 0 C0.33 0.99 0.66 1.98 1 3 C-0.8125 4.0625 -0.8125 4.0625 -3 5 C-3.99 4.67 -4.98 4.34 -6 4 C-4.03617993 2.49440461 -2.21736634 1.10868317 0 0 Z " fill="#D9DAD2" transform="translate(285,111)"/>
<path d="M0 0 C5.53846154 0.61538462 5.53846154 0.61538462 7.875 2.5625 C8.431875 3.2740625 8.431875 3.2740625 9 4 C7.3125 4.8125 7.3125 4.8125 5 5 C2.25 2.5625 2.25 2.5625 0 0 Z " fill="#D0D0CF" transform="translate(350,100)"/>
<path d="M0 0 C0 0.66 0 1.32 0 2 C-2.70879335 3.35439668 -5.00933268 3.06501451 -8 3 C-5.53387212 -0.1151089 -3.89156016 -0.31553191 0 0 Z " fill="#EDEDEB" transform="translate(346,264)"/>
<path d="M0 0 C0 0.66 0 1.32 0 2 C-0.78375 2.309375 -1.5675 2.61875 -2.375 2.9375 C-4.92330128 3.92875038 -4.92330128 3.92875038 -7 5 C-7.99 4.34 -8.98 3.68 -10 3 C-8.70990357 2.49596232 -7.41786211 1.99690074 -6.125 1.5 C-5.04605469 1.08234375 -5.04605469 1.08234375 -3.9453125 0.65625 C-2 0 -2 0 0 0 Z " fill="#32332F" transform="translate(352,256)"/>
<path d="M0 0 C2.4375 1.1875 2.4375 1.1875 3.4375 3.1875 C2.4475 3.5175 1.4575 3.8475 0.4375 4.1875 C-2.25 2.25 -2.25 2.25 -4.5625 0.1875 C-2.5625 -0.8125 -2.5625 -0.8125 0 0 Z " fill="#383937" transform="translate(271.5625,255.8125)"/>
<path d="M0 0 C0.99 0.66 1.98 1.32 3 2 C1.71034824 3.37562854 0.37310707 4.70766393 -1 6 C-1.66 6 -2.32 6 -3 6 C-2 4 -1 2 0 0 Z " fill="#D9D9D8" transform="translate(388,232)"/>
<path d="M0 0 C0.66 0 1.32 0 2 0 C4 3 4 3 3.625 5.6875 C3.41875 6.450625 3.2125 7.21375 3 8 C1.0549 5.08235 0.54723683 3.37462715 0 0 Z " fill="#EDEDEB" transform="translate(242,232)"/>
<path d="M0 0 C0 2.31 0 4.62 0 7 C-0.99 7.495 -0.99 7.495 -2 8 C-2.33 5.69 -2.66 3.38 -3 1 C-1 0 -1 0 0 0 Z " fill="#EEEEEE" transform="translate(230,193)"/>
<path d="M0 0 C0.99 0 1.98 0 3 0 C3 1.32 3 2.64 3 4 C2.01 4 1.02 4 0 4 C0 2.68 0 1.36 0 0 Z " fill="#767676" transform="translate(354,234)"/>
</svg>
